<svg width="110" height="128" viewBox="0 0 110 128" fill="none" xmlns="http://www.w3.org/2000/svg">
<path opacity="0.7" d="M54.6166 18.8509C52.4013 21.2998 50.4015 25.0088 50.9916 32.599C51.4553 38.6036 51.6838 39.2967 51.8746 40.6814C52.3657 44.1705 55.6797 66.6471 52.2289 67.328C46.4592 68.472 40.6943 71.3885 35.8546 76.0325C24.0868 87.2939 22.2016 104.415 31.6404 114.27C41.0791 124.125 58.2588 122.985 70.0266 111.724C81.7944 100.462 83.6796 83.3414 74.2408 73.4865C74.0646 73.2975 73.8818 73.1213 73.6989 72.9451C73.3647 72.6252 73.0595 72.2962 72.7935 71.9231C71.8168 70.5729 69.9858 68.3971 68.5075 64.5384C67.6825 62.3864 60.6484 37.8071 60.046 33.5244C59.6381 30.604 59.8373 27.0466 62.0816 26.0757C64.1839 25.1601 65.4133 26.1652 67.4971 27.6242C69.0489 28.7087 71.4892 29.004 73.1355 28.6991C75.1516 28.3204 78.0801 26.5184 79.5446 24.1142C81.0719 21.6054 81.7492 19.1299 81.4117 14.9126C81.1488 11.5748 79.8885 7.53074 76.9755 4.71771C75.9856 3.76475 74.5628 2.82035 74.3443 3.03773C74.1584 3.22362 75.0539 4.0788 75.5077 5.45519C76.0496 7.11194 76.167 9.412 75.093 11.0986C73.4818 13.6444 71.574 14.807 70.1826 15.0106C68.306 15.2923 64.987 14.8376 61.7707 15.1154C58.2849 15.4142 56.5248 16.7428 54.607 18.8539L54.6166 18.8509Z" fill="#FF9585" fill-opacity="0.7"/>
<path opacity="0.7" d="M73.8648 2.46261C74.2615 2.74712 74.6894 3.09741 75.0539 3.44832L75.0536 3.44739C77.6755 5.97932 78.9215 9.57553 79.2789 12.7031L79.3392 13.3218L79.3386 13.3231C79.6481 17.191 79.0875 19.5138 77.8085 21.7731L77.5431 22.225C76.8562 23.3524 75.8138 24.3553 74.6901 25.1239C73.5637 25.8943 72.3918 26.405 71.4692 26.5783L71.4702 26.578C70.7119 26.7185 69.7496 26.7233 68.7899 26.5605C67.8287 26.3975 66.9066 26.073 66.2088 25.5854L66.2098 25.5851C65.1974 24.8762 64.3046 24.2107 63.4013 23.8635C62.505 23.519 61.5973 23.4824 60.5246 23.8985L60.3078 23.9871C58.9657 24.5681 58.2976 25.8978 58.0048 27.3396C57.7468 28.6103 57.7596 30.0568 57.9061 31.3967L57.9769 31.964C58.284 34.1471 60.2055 41.4048 62.1371 48.3351C63.9494 54.8369 65.7963 61.144 66.3689 62.8165L66.4664 63.0878C67.5962 66.0368 68.9336 68.0297 69.939 69.4047L70.814 70.5863C71.1034 70.9918 71.4311 71.3432 71.7774 71.6747L71.7777 71.6757C71.8697 71.7643 71.959 71.8503 72.0459 71.9363L72.3011 72.198L72.3057 72.2027C81.3547 81.651 79.7895 98.079 68.6447 109.207L68.1068 109.733C56.6576 120.69 40.1454 121.858 30.8634 112.737L30.4275 112.294C21.3782 102.846 22.9432 86.4179 34.0885 75.2901L34.6263 74.7638C39.2496 70.3276 44.7238 67.4944 50.2198 66.2989L50.7514 66.1891C51.4666 66.048 51.8749 65.3765 52.1222 64.6651C52.3822 63.9172 52.5378 62.9184 52.6224 61.7747C52.7921 59.4793 52.6842 56.4667 52.4545 53.3906C51.9946 47.232 51.0411 40.7253 50.7959 38.9829C50.6281 37.7658 50.434 37.0963 50.0786 32.9384L49.9155 30.9311C49.335 23.4652 51.2982 19.8942 53.4132 17.5562L53.7076 17.2293C54.5393 16.3457 55.3391 15.6412 56.2734 15.1106C57.1859 14.5925 58.2488 14.2286 59.6281 14.0492L60.2392 13.984C61.8141 13.848 63.4201 13.8904 64.8893 13.9342C66.334 13.9773 67.6872 14.0237 68.6807 13.8749L68.681 13.8758C70.2594 13.6448 72.278 12.3632 73.9401 9.73761C75.0518 7.99167 74.9887 5.70857 74.5097 4.00322L74.4083 3.67068L74.4077 3.66882L74.3105 3.39534C74.1761 3.04526 74.0165 2.73415 73.8648 2.46261Z" fill="#FF9585" stroke="white"/>
<path opacity="0.7" d="M73.8648 2.46261C74.2615 2.74712 74.6894 3.09741 75.0539 3.44832L75.0536 3.44739C77.6755 5.97932 78.9215 9.57553 79.2789 12.7031L79.3392 13.3218L79.3386 13.3231C79.6481 17.191 79.0875 19.5138 77.8085 21.7731L77.5431 22.225C76.8562 23.3524 75.8138 24.3553 74.6901 25.1239C73.5637 25.8943 72.3918 26.405 71.4692 26.5783L71.4702 26.578C70.7119 26.7185 69.7496 26.7233 68.7899 26.5605C67.8287 26.3975 66.9066 26.073 66.2088 25.5854L66.2098 25.5851C65.1974 24.8762 64.3046 24.2107 63.4013 23.8635C62.505 23.519 61.5973 23.4824 60.5246 23.8985L60.3078 23.9871C58.9657 24.5681 58.2976 25.8978 58.0048 27.3396C57.7468 28.6103 57.7596 30.0568 57.9061 31.3967L57.9769 31.964C58.284 34.1471 60.2055 41.4048 62.1371 48.3351C63.9494 54.8369 65.7963 61.144 66.3689 62.8165L66.4664 63.0878C67.5962 66.0368 68.9336 68.0297 69.939 69.4047L70.814 70.5863C71.1034 70.9918 71.4311 71.3432 71.7774 71.6747L71.7777 71.6757C71.8697 71.7643 71.959 71.8503 72.0459 71.9363L72.3011 72.198L72.3057 72.2027C81.3547 81.651 79.7895 98.079 68.6447 109.207L68.1068 109.733C56.6576 120.69 40.1454 121.858 30.8634 112.737L30.4275 112.294C21.3782 102.846 22.9432 86.4179 34.0885 75.2901L34.6263 74.7638C39.2496 70.3276 44.7238 67.4944 50.2198 66.2989L50.7514 66.1891C51.4666 66.048 51.8749 65.3765 52.1222 64.6651C52.3822 63.9172 52.5378 62.9184 52.6224 61.7747C52.7921 59.4793 52.6842 56.4667 52.4545 53.3906C51.9946 47.232 51.0411 40.7253 50.7959 38.9829C50.6281 37.7658 50.434 37.0963 50.0786 32.9384L49.9155 30.9311C49.335 23.4652 51.2982 19.8942 53.4132 17.5562L53.7076 17.2293C54.5393 16.3457 55.3391 15.6412 56.2734 15.1106C57.1859 14.5925 58.2488 14.2286 59.6281 14.0492L60.2392 13.984C61.8141 13.848 63.4201 13.8904 64.8893 13.9342C66.334 13.9773 67.6872 14.0237 68.6807 13.8749L68.681 13.8758C70.2594 13.6448 72.278 12.3632 73.9401 9.73761C75.0518 7.99167 74.9887 5.70857 74.5097 4.00322L74.4083 3.67068L74.4077 3.66882L74.3105 3.39534C74.1761 3.04526 74.0165 2.73415 73.8648 2.46261Z" fill="#FF9585" fill-opacity="0.7" stroke="white"/>
<path d="M39.9191 85.0799C39.92 85.2177 42.4881 87.715 42.0152 89.1171C41.6097 90.328 38.0331 89.9443 35.6079 90.1208" stroke="#231815" stroke-width="1.5" stroke-miterlimit="10" stroke-linecap="round"/>
<path d="M48.7844 79.3833L49.7091 81.1429C49.8983 81.5083 50.4002 81.5843 50.6905 81.2912L54.5485 77.4444" stroke="#231815" stroke-width="1.5" stroke-miterlimit="10" stroke-linecap="round"/>
<path d="M43.2017 83.9316L44.2551 86.4049" stroke="#231815" stroke-width="0.75" stroke-miterlimit="10" stroke-linecap="round"/>
<path d="M46.2185 82.5479L46.8949 85.1397" stroke="#231815" stroke-width="0.75" stroke-miterlimit="10" stroke-linecap="round"/>
<path d="M43.9068 97.8698C45.0067 97.5241 45.4549 95.8329 44.9079 94.0923C44.3608 92.3517 43.0258 91.2208 41.9259 91.5665C40.826 91.9122 40.3778 93.6034 40.9248 95.344C41.4718 97.0846 42.8069 98.2155 43.9068 97.8698Z" fill="#231815"/>
<path d="M55.7586 91.4045C56.8585 91.0588 57.3067 89.3675 56.7597 87.6269C56.2127 85.8863 54.8776 84.7555 53.7777 85.1012C52.6778 85.4468 52.2296 87.1381 52.7766 88.8787C53.3236 90.6193 54.6587 91.7501 55.7586 91.4045Z" fill="#231815"/>
<path d="M46.8927 114.607L45.7152 112.449C45.563 112.168 45.5914 111.819 45.7724 111.549C46.6317 110.228 46.8621 108.764 46.3 107.719C45.3614 106.017 42.4678 105.8 39.8307 107.245C37.1937 108.69 35.8098 111.249 36.7483 112.951C37.3201 113.993 38.6849 114.584 40.2524 114.57C40.5794 114.562 40.8844 114.722 41.0396 115.013L42.2171 117.171" stroke="#231815" stroke-miterlimit="10" stroke-linecap="round"/>
<path d="M73.3259 93.9675L71.0267 93.1074C70.7243 92.99 70.5207 92.714 70.4815 92.3864C70.268 90.8283 69.4885 89.5649 68.3803 89.1483C66.5523 88.4694 64.2277 90.1984 63.1725 93.0263C62.1173 95.8542 62.7512 98.6824 64.5792 99.3614C65.6873 99.7779 67.1085 99.3313 68.2899 98.2908C68.5307 98.077 68.8655 97.9931 69.1776 98.1074L71.4769 98.9676" stroke="#231815" stroke-miterlimit="10" stroke-linecap="round"/>
<path d="M29.8697 91.1277C29.9818 91.3156 30.408 92.0633 30.1754 92.9118C29.905 93.9103 28.844 94.6581 27.5654 94.6456" stroke="#C74A39" stroke-width="0.75" stroke-miterlimit="10" stroke-linecap="round"/>
<path d="M35.9444 93.7224C35.7414 93.7862 34.9196 94.0445 34.1319 93.6335C33.214 93.1465 32.7218 91.9521 33.0124 90.7136" stroke="#C74A39" stroke-width="0.75" stroke-miterlimit="10" stroke-linecap="round"/>
<path d="M30.1326 96.8661C30.194 96.6556 30.5807 95.7905 31.3665 95.3842C32.2913 94.913 33.4393 95.2533 34.2817 96.2101" stroke="#C74A39" stroke-width="0.75" stroke-miterlimit="10" stroke-linecap="round"/>
<path d="M52.0999 70.7515C52.3714 70.7991 53.4298 71.0136 54.0561 71.936C54.7931 73.0079 54.6366 74.6105 53.58 75.795" stroke="#C74A39" stroke-width="0.75" stroke-miterlimit="10" stroke-linecap="round"/>
<path d="M60.2645 67.6032C60.1829 67.8483 59.8024 68.805 58.7367 69.1021C57.4748 69.4646 55.7651 68.7802 54.6283 67.3704" stroke="#C74A39" stroke-width="0.75" stroke-miterlimit="10" stroke-linecap="round"/>
<path d="M57.0593 75.6857C56.9235 75.4168 56.923 74.1913 57.5347 73.0422C58.2431 71.6869 59.7008 70.9322 61.7975 71.1186" stroke="#C74A39" stroke-width="0.75" stroke-miterlimit="10" stroke-linecap="round"/>
<path d="M36.2308 102.343L36.6987 103.832" stroke="#C74A39" stroke-width="0.5" stroke-miterlimit="10" stroke-linecap="round"/>
<path d="M37.597 100.979L38.1804 102.835" stroke="#C74A39" stroke-width="0.5" stroke-miterlimit="10" stroke-linecap="round"/>
<path d="M59.8163 89.5452L60.9256 90.6412" stroke="#C74A39" stroke-width="0.5" stroke-miterlimit="10" stroke-linecap="round"/>
<path d="M60.1599 88.2048L61.5465 89.5749" stroke="#C74A39" stroke-width="0.5" stroke-miterlimit="10" stroke-linecap="round"/>
<path d="M49.8406 100.434C49.8406 100.434 48.9331 96.787 51.8328 95.347C54.7325 93.907 56.4553 96.4665 56.4553 96.4665" stroke="black" stroke-linecap="round"/>
</svg>
