<svg width="82" height="102" viewBox="0 0 82 102" fill="none" xmlns="http://www.w3.org/2000/svg">
<path d="M58.9083 15.0549C59.7283 15.1249 59.0683 17.8749 61.4683 20.6249C63.9783 23.4949 68.5883 24.9549 72.6783 23.8249C74.7983 23.2349 76.1783 22.1149 76.8183 21.5849C81.2783 17.8849 81.5583 12.2649 81.6383 10.7349C81.6582 10.2749 81.7982 6.82491 80.1683 3.53491C80.0882 3.36491 79.3583 1.90491 79.0783 2.00491C78.7983 2.09491 79.3682 3.56491 79.2383 4.84491C78.9183 7.95491 74.3783 11.0649 70.0182 11.0649C67.1982 11.0649 64.4683 9.74491 62.8683 8.13491C60.0183 5.27491 59.4583 4.08491 59.4583 4.08491C58.3883 3.01491 53.6082 4.98491 50.7583 8.08491C48.4883 10.5549 47.7283 13.4149 46.5383 17.9449C45.7783 20.8349 45.2183 24.2249 45.2183 24.2249C45.1183 24.8749 45.0583 25.2949 44.9783 25.8149C44.4083 29.2449 40.8783 51.3849 37.4283 51.0049C31.6583 50.3749 25.3683 51.4149 19.4383 54.3549C5.02825 61.4549 -1.81175 77.0149 4.15825 89.0849C10.1283 101.155 26.6383 105.165 41.0483 98.0449C55.4583 90.9249 62.2983 75.3649 56.3283 63.2949C56.2183 63.0649 56.0983 62.8449 55.9783 62.6249C55.7583 62.2249 55.5683 61.8249 55.4283 61.3949C54.6683 59.1449 54.0583 56.7949 54.0583 56.7949C54.0583 56.7949 53.6983 54.9949 53.5783 53.1849C53.1883 47.3949 56.0983 14.8249 58.9083 15.0649V15.0549Z" fill="#F8C28C" fill-opacity="0.5"/>
<path d="M77.7227 1.77197C79.2888 4.93322 79.1605 8.26474 79.1406 8.72412C79.063 10.2089 78.7963 15.3323 74.8906 18.8774L74.501 19.2153C73.9146 19.7009 72.7234 20.6665 70.916 21.2476L70.5459 21.3579C66.7595 22.4036 62.5021 21.1186 60.0752 18.562L59.8467 18.311C58.7218 17.022 58.3126 15.7357 58.085 14.7388C58.0272 14.486 57.982 14.2549 57.9375 14.0376C57.8943 13.8266 57.8509 13.6207 57.7988 13.4429C57.7485 13.2711 57.677 13.0775 57.5576 12.9175C57.4236 12.738 57.223 12.5949 56.9531 12.5718L56.4102 12.5259V12.7114C56.2366 12.8135 56.0951 12.9599 55.9873 13.0991C55.7692 13.3809 55.5738 13.7725 55.3936 14.228C55.0302 15.1465 54.6802 16.4547 54.3477 18.0171C53.681 21.15 53.0644 25.3976 52.5488 29.8208C51.5838 38.0996 50.9639 47.0842 51.0537 50.604L51.0811 51.2339C51.1424 52.1585 51.2649 53.0762 51.3711 53.7603C51.4243 54.103 51.4735 54.3889 51.5098 54.5894C51.5279 54.6895 51.5433 54.7685 51.5537 54.8228C51.5589 54.8498 51.5626 54.8709 51.5654 54.8853C51.5668 54.8924 51.5676 54.8981 51.5684 54.9019C51.5687 54.9038 51.5691 54.9057 51.5693 54.9067V54.9077H51.5703L51.5723 54.9224L51.5762 54.936L51.5771 54.938C51.5775 54.9392 51.5776 54.9408 51.5781 54.9429C51.5793 54.9475 51.5816 54.9544 51.584 54.9634C51.5887 54.9815 51.5953 55.0087 51.6045 55.0435C51.6229 55.1129 51.6498 55.2147 51.6846 55.3433C51.7541 55.6005 51.8551 55.9663 51.9795 56.4028C52.2282 57.2757 52.5726 58.4345 52.9561 59.5698V59.5688C53.0706 59.9198 53.2141 60.2485 53.375 60.5659L53.542 60.8813C53.6021 60.9916 53.6607 61.0984 53.7168 61.2046L53.8789 61.5259L53.8818 61.5317C59.6942 73.2831 53.0688 88.5758 38.8291 95.6118C24.8115 102.538 8.92593 98.7526 2.88867 87.4233L2.6084 86.8784C-3.11319 75.3106 3.21787 60.3119 16.999 53.1538L17.6611 52.8188L17.6621 52.8179C23.5082 49.9195 29.7023 48.8969 35.375 49.5161V49.5171C36.0938 49.5963 36.6796 49.0826 37.123 48.4858C37.5896 47.858 38.0322 46.9634 38.4502 45.9116C39.2893 43.8004 40.0786 40.9314 40.7725 37.9673C41.8145 33.5161 42.6529 28.7983 43.127 25.9956L43.4736 23.9116L43.4746 23.9058C43.5148 23.6446 43.5495 23.4085 43.5869 23.1577C43.6244 22.9066 43.665 22.6397 43.7148 22.3159L43.7139 22.3149L43.7148 22.312C43.7159 22.3057 43.7177 22.296 43.7197 22.2837C43.7239 22.2587 43.73 22.2216 43.7383 22.1733C43.7549 22.076 43.7795 21.9328 43.8115 21.7524C43.8755 21.3917 43.9691 20.88 44.0859 20.2788C44.2615 19.3759 44.4902 18.274 44.752 17.1763L45.0234 16.0874C46.1831 11.6729 46.9105 8.97285 48.9287 6.66064L49.1279 6.43799C50.5007 4.94487 52.3499 3.71579 53.9805 2.99365C54.7963 2.63234 55.5349 2.40795 56.1143 2.3335C56.6592 2.2635 56.9435 2.34037 57.0654 2.42139C57.0901 2.46542 57.1228 2.52314 57.167 2.59424C57.273 2.765 57.4419 3.01567 57.6982 3.354C58.2108 4.03049 59.0781 5.0609 60.5156 6.50342V6.50244C62.2033 8.20066 65.0588 9.57959 68.0205 9.57959C70.312 9.57952 72.6332 8.76571 74.4258 7.55029C76.0915 6.42083 77.3857 4.88365 77.6904 3.24072L77.7373 2.91162V2.91064C77.7764 2.52563 77.7573 2.13073 77.7188 1.76514L77.7227 1.77197Z" fill="#FFBE7D" fill-opacity="0.7" stroke="white"/>
<path d="M14.0803 64.2598C13.6503 64.3798 12.5003 64.7898 11.5903 65.9198C10.4303 67.3598 10.1303 68.4798 10.1503 68.8598" stroke="#231815" stroke-miterlimit="10" stroke-linecap="round"/>
<path d="M30.1797 57.2702C30.2897 56.8602 31.1497 56.0702 32.0197 56.0902C33.4497 56.1202 34.5197 56.6702 35.0197 56.9802" stroke="#231815" stroke-miterlimit="10" stroke-linecap="round"/>
<path d="M14.89 76.3102C13.89 74.6002 14.22 72.7502 15.21 71.9102C15.9 71.3202 16.81 71.3902 16.93 71.4002C18.19 71.5202 19.26 72.5102 19.93 74.0802" stroke="#231815" stroke-miterlimit="10" stroke-linecap="round"/>
<path d="M34.0103 61.9502C32.6903 63.6102 32.4003 65.1002 32.3203 65.8802C32.2103 66.9402 32.4403 67.2102 32.5103 67.2802C33.0603 67.8502 34.3903 67.5302 36.4403 67.0202C36.8303 66.9202 37.1603 66.8302 37.4003 66.7602" stroke="#231815" stroke-miterlimit="10" stroke-linecap="round"/>
<path d="M8.91958 83.0098C6.89958 82.4798 4.22958 83.2498 3.29958 84.4398C2.47958 85.4898 2.84958 86.4898 2.93958 86.7198C4.01958 89.5698 7.51958 91.6898 13.1396 92.8198" stroke="#231815" stroke-miterlimit="10" stroke-linecap="round"/>
<path d="M44.7197 71.9398C44.8497 69.8498 45.9897 66.7898 47.9097 65.5698C49.0397 64.8598 50.0197 64.9198 50.6397 65.3798C51.8197 66.2398 53.3997 71.2998 52.7397 76.9898" stroke="#231815" stroke-miterlimit="10" stroke-linecap="round"/>
<path d="M35.9502 70.9902C36.2202 71.5902 37.7702 75.1102 36.1402 78.9802C35.8502 79.6602 34.4102 83.0902 30.6302 84.2502C27.0002 85.3602 23.9802 83.5202 23.4002 83.1502C21.5902 81.9902 20.6602 80.4602 20.2402 79.6602L35.9402 71.0002L35.9502 70.9902Z" stroke="#231815" stroke-miterlimit="10"/>
<path d="M22.8604 78.21L25.6104 83.91" stroke="#231815" stroke-miterlimit="10"/>
<path d="M25.9805 76.8398L30.1805 84.7398" stroke="#231815" stroke-miterlimit="10"/>
<path d="M29.5303 74.6401L33.7303 82.5401" stroke="#231815" stroke-miterlimit="10"/>
<path d="M33.2998 72.8398L36.0598 78.5398" stroke="#231815" stroke-miterlimit="10"/>
<path d="M14.9902 79.1201V81.3301" stroke="#E07951" stroke-width="0.75" stroke-miterlimit="10" stroke-linecap="round"/>
<path d="M17.3701 78.6299L17.9601 80.7499" stroke="#E07951" stroke-width="0.75" stroke-miterlimit="10" stroke-linecap="round"/>
<path d="M38.3799 69.29L40.4699 70.84" stroke="#E07951" stroke-width="0.75" stroke-miterlimit="10" stroke-linecap="round"/>
<path d="M40.25 68.0801L42.34 69.6301" stroke="#E07951" stroke-width="0.75" stroke-miterlimit="10" stroke-linecap="round"/>
</svg>
