<svg width="80" height="101" viewBox="0 0 80 101" fill="none" xmlns="http://www.w3.org/2000/svg">
<path d="M60.3166 4C65.2306 4.32007 69.7953 6.14012 72.1907 7.83008C74.5653 9.49996 76.1584 10.9501 77.1145 14.4697C77.6072 16.2768 77.4466 17.8696 77.1565 19.1074C78.2184 19.4537 79.0002 20.616 79.0002 22C79.0002 23.6569 77.8809 25 76.5002 25C75.1195 25 74.0002 23.6569 74.0002 22C74.0002 21.4353 74.1325 20.9081 74.3586 20.457C73.8314 20.0245 73.1791 19.621 72.4065 19.3203C72.2317 19.2603 70.6993 18.6398 69.4348 19.2598C68.6228 19.6597 68.3661 20.1503 67.7287 21.2402C66.6495 23.0999 64.9841 23.9096 64.3157 24.1797C63.0513 24.6896 61.8175 24.7195 60.9026 24.5596C58.5073 24.1396 57.2219 20.5102 56.6565 18.6602C56.1527 17.0002 55.3708 13.3298 56.8821 8.25977C57.2522 7.01971 58.9493 3.91977 60.3166 4.00977V4Z" fill="#EAE3F0" fill-opacity="0.7"/>
<path d="M62.7681 4.39257C59.3981 3.64257 56.4581 3.96257 54.0281 5.39257C51.2181 7.04257 48.2381 9.94257 46.5481 17.2626C45.2081 23.0526 45.2181 23.7726 44.9881 25.1326C44.4181 28.5626 40.8881 50.7026 37.4381 50.3226C31.6681 49.6926 25.3781 50.7326 19.4481 53.6726C5.02811 60.7926 -1.81189 76.3526 4.15811 88.4326C10.1281 100.503 26.6381 104.513 41.0481 97.3926C55.4581 90.2726 62.2981 74.7126 56.3281 62.6426C56.2181 62.4126 56.0981 62.1926 55.9781 61.9726C55.7581 61.5726 55.5681 61.1726 55.4281 60.7426C54.9081 59.1826 53.8281 56.5926 53.5781 52.5226C53.4381 50.2526 54.0881 25.0326 54.7881 20.8226C55.2681 17.9526 56.7881 14.4926 59.1881 14.2326" fill="#E2D4F8" fill-opacity="0.5"/>
<mask id="path-3-inside-1_1794_236" fill="white">
<path d="M60.7701 1.87988C57.4001 1.12988 54.4601 1.44988 52.0301 2.87988C49.2201 4.52988 46.2401 7.42987 44.5501 14.7499C43.2101 20.5399 43.2201 21.2599 42.9901 22.6199C42.4201 26.0499 38.8901 48.1899 35.4401 47.8099C29.6701 47.1799 23.3801 48.2199 17.4501 51.1599C3.03006 58.2799 -3.80994 73.8399 2.16006 85.9199C8.13006 97.9899 24.6401 102 39.0501 94.8799C53.4601 87.7599 60.3001 72.1999 54.3301 60.1299C54.2201 59.8999 54.1001 59.6799 53.9801 59.4599C53.7601 59.0599 53.5701 58.6599 53.4301 58.2299C52.9101 56.6699 51.8301 54.0799 51.5801 50.0099C51.4401 47.7399 52.0901 22.5199 52.7901 18.3099C53.2701 15.4399 54.7901 11.9799 57.1901 11.7199"/>
</mask>
<path d="M60.7701 1.87988C57.4001 1.12988 54.4601 1.44988 52.0301 2.87988C49.2201 4.52988 46.2401 7.42987 44.5501 14.7499C43.2101 20.5399 43.2201 21.2599 42.9901 22.6199C42.4201 26.0499 38.8901 48.1899 35.4401 47.8099C29.6701 47.1799 23.3801 48.2199 17.4501 51.1599C3.03006 58.2799 -3.80994 73.8399 2.16006 85.9199C8.13006 97.9899 24.6401 102 39.0501 94.8799C53.4601 87.7599 60.3001 72.1999 54.3301 60.1299C54.2201 59.8999 54.1001 59.6799 53.9801 59.4599C53.7601 59.0599 53.5701 58.6599 53.4301 58.2299C52.9101 56.6699 51.8301 54.0799 51.5801 50.0099C51.4401 47.7399 52.0901 22.5199 52.7901 18.3099C53.2701 15.4399 54.7901 11.9799 57.1901 11.7199" fill="#E2D4F8" fill-opacity="0.7"/>
<path d="M60.5528 2.85599C61.0919 2.97597 61.6262 2.63621 61.7462 2.09711C61.8662 1.55802 61.5264 1.02373 60.9873 0.903756L60.5528 2.85599ZM52.0301 2.87988L52.5364 3.7422L52.5372 3.74172L52.0301 2.87988ZM44.5501 14.7499L45.5243 14.9753L45.5244 14.9748L44.5501 14.7499ZM42.9901 22.6199L42.0041 22.4531L42.0036 22.4559L42.9901 22.6199ZM35.4401 47.8099L35.5495 46.8159L35.5486 46.8158L35.4401 47.8099ZM17.4501 51.1599L17.8928 52.0565L17.8942 52.0558L17.4501 51.1599ZM2.16006 85.9199L1.26356 86.3629L1.26371 86.3632L2.16006 85.9199ZM54.3301 60.1299L53.4278 60.5614L53.4337 60.5732L54.3301 60.1299ZM53.9801 59.4599L54.858 58.981L54.8563 58.978L53.9801 59.4599ZM53.4301 58.2299L54.381 57.9203L54.3787 57.9136L53.4301 58.2299ZM51.5801 50.0099L52.5782 49.9486L52.5782 49.9483L51.5801 50.0099ZM52.7901 18.3099L51.8038 18.1449L51.8036 18.1459L52.7901 18.3099ZM57.2978 12.7141C57.8468 12.6546 58.2437 12.1612 58.1842 11.6122C58.1248 11.0631 57.6314 10.6662 57.0824 10.7257L57.2978 12.7141ZM60.7701 1.87988L60.9873 0.903756C57.4349 0.113168 54.2224 0.429438 51.5229 2.01803L52.0301 2.87988L52.5372 3.74172C54.6977 2.47031 57.3652 2.14658 60.5528 2.85599L60.7701 1.87988ZM52.0301 2.87988L51.5237 2.01755C48.4557 3.81905 45.3218 6.96195 43.5757 14.5249L44.5501 14.7499L45.5244 14.9748C47.1583 7.8978 49.9844 5.2407 52.5364 3.7422L52.0301 2.87988ZM44.5501 14.7499L43.5758 14.5244C42.2274 20.3507 42.2318 21.1063 42.0041 22.4531L42.9901 22.6199L43.9761 22.7866C44.2083 21.4135 44.1927 20.7291 45.5243 14.9753L44.5501 14.7499ZM42.9901 22.6199L42.0036 22.4559C41.7174 24.1778 40.6976 30.537 39.3214 36.4157C38.6317 39.3618 37.8626 42.1424 37.0658 44.1473C36.6643 45.1573 36.2793 45.9094 35.929 46.3808C35.5325 46.9143 35.4055 46.8 35.5495 46.8159L35.4401 47.8099L35.3306 48.8039C36.3371 48.9147 37.0751 48.1917 37.5343 47.5737C38.0396 46.8937 38.5008 45.9517 38.9244 44.8859C39.7775 42.7392 40.5734 39.8417 41.2687 36.8716C42.6625 30.9177 43.6927 24.4919 43.9765 22.7838L42.9901 22.6199ZM35.4401 47.8099L35.5486 46.8158C29.5845 46.1646 23.1031 47.2411 17.0059 50.2639L17.4501 51.1599L17.8942 52.0558C23.6571 49.1987 29.7556 48.1952 35.3315 48.804L35.4401 47.8099ZM17.4501 51.1599L17.0073 50.2632C2.2467 57.5514 -5.0212 73.646 1.26356 86.3629L2.16006 85.9199L3.05655 85.4768C-2.59868 74.0337 3.81342 59.0083 17.8928 52.0565L17.4501 51.1599ZM2.16006 85.9199L1.26371 86.3632C7.54872 99.0701 24.7431 103.064 39.493 95.7764L39.0501 94.8799L38.6071 93.9833C24.537 100.935 8.7114 96.9097 3.05641 85.4765L2.16006 85.9199ZM39.0501 94.8799L39.493 95.7764C54.2432 88.4883 61.5116 72.3937 55.2264 59.6865L54.3301 60.1299L53.4337 60.5732C59.0886 72.0061 52.6769 87.0314 38.6071 93.9833L39.0501 94.8799ZM54.3301 60.1299L55.2322 59.6984C55.1088 59.4405 54.976 59.1974 54.858 58.981L53.9801 59.4599L53.1022 59.9387C53.2241 60.1623 53.3313 60.3593 53.4279 60.5613L54.3301 60.1299ZM53.9801 59.4599L54.8563 58.978C54.6543 58.6107 54.495 58.2706 54.3809 57.9203L53.4301 58.2299L52.4792 58.5395C52.6451 59.0492 52.8658 59.5091 53.1038 59.9418L53.9801 59.4599ZM53.4301 58.2299L54.3787 57.9136C53.8465 56.3168 52.8185 53.8611 52.5782 49.9486L51.5801 50.0099L50.5819 50.0712C50.8416 54.2986 51.9736 57.0229 52.4814 58.5461L53.4301 58.2299ZM51.5801 50.0099L52.5782 49.9483C52.5119 48.8734 52.6361 42.0641 52.8695 34.92C53.1033 27.7658 53.4403 20.4958 53.7765 18.4739L52.7901 18.3099L51.8036 18.1459C51.4398 20.3339 51.1018 27.779 50.8706 34.8547C50.639 41.9407 50.5082 48.8763 50.582 50.0714L51.5801 50.0099ZM52.7901 18.3099L53.7764 18.4748C54.0016 17.1281 54.4687 15.6691 55.1317 14.5437C55.8138 13.3858 56.5692 12.793 57.2978 12.7141L57.1901 11.7199L57.0824 10.7257C55.4109 10.9068 54.2064 12.174 53.4084 13.5286C52.5914 14.9156 52.0585 16.6217 51.8038 18.1449L52.7901 18.3099Z" fill="white" fill-opacity="0.7" mask="url(#path-3-inside-1_1794_236)"/>
<path d="M16.9629 60.8614C16.4576 60.9366 15.6515 61.1291 14.8241 61.6447C14.3963 61.9139 14.07 62.194 13.8315 62.4462" stroke="#231815" stroke-miterlimit="10" stroke-linecap="round"/>
<path d="M36.9515 59.2448C36.4912 59.0231 35.7163 58.7294 34.7421 58.691C34.237 58.6733 33.8096 58.7216 33.4706 58.7962" stroke="#231815" stroke-miterlimit="10" stroke-linecap="round"/>
<path d="M13.702 67.6928C14.0279 69.1079 15.3167 70.2403 17.0009 70.5838C18.5312 70.8976 20.3399 70.5454 21.4494 69.402C22.4328 68.3904 22.6211 66.9952 21.9472 65.7935" stroke="#231815" stroke-miterlimit="10" stroke-linecap="round"/>
<path d="M30.2293 64.9619C30.5552 66.3769 31.844 67.5094 33.5282 67.8529C35.0586 68.1667 36.8673 67.8144 37.9768 66.671C38.9601 65.6595 39.1485 64.2642 38.4745 63.0625" stroke="#231815" stroke-miterlimit="10" stroke-linecap="round"/>
<path d="M24.9774 73.5993C25.1592 74.2858 25.7062 74.7892 26.4692 74.9017C27.1607 75.0006 27.8889 74.8352 28.3462 74.2221C28.7499 73.684 28.8054 72.9562 28.5918 72.3629" stroke="#231815" stroke-miterlimit="10" stroke-linecap="round"/>
<path d="M11.6319 86.3869C13.6693 85.0303 15.5098 84.5045 16.6337 84.2736C18.0628 83.9753 22.1935 83.1245 24.4877 85.4296C24.7633 85.7061 25.6699 86.6392 25.742 88.0082C25.8255 89.6172 24.7145 90.7806 24.2375 91.285C22.0257 93.611 18.6219 93.3829 17.9439 93.323" stroke="#231815" stroke-miterlimit="10" stroke-linecap="round"/>
<path d="M47.1149 75.6179C44.6961 75.9645 42.9628 76.7919 41.9706 77.3725C40.701 78.1083 37.0545 80.2211 36.8719 83.4602C36.8459 83.844 36.7922 85.154 37.6506 86.2218C38.7015 87.5336 40.3871 87.634 40.952 87.6639C42.4357 87.7523 43.5701 87.1891 44.0758 86.893" stroke="#231815" stroke-miterlimit="10" stroke-linecap="round"/>
<path d="M14.0607 76.7027L13.768 79.1585" stroke="#E0ACCD" stroke-miterlimit="10" stroke-linecap="round"/>
<path d="M16.6912 76.1464L16.4967 78.9147" stroke="#E0ACCD" stroke-miterlimit="10" stroke-linecap="round"/>
<path d="M40.0908 69.6992L40.3007 72.0499" stroke="#E0ACCD" stroke-miterlimit="10" stroke-linecap="round"/>
<path d="M42.5322 69.0493L42.7457 71.4398" stroke="#E0ACCD" stroke-miterlimit="10" stroke-linecap="round"/>
<path d="M60.6319 1.01066C59.1645 0.914753 57.3441 4.21807 56.9469 5.53939C55.325 10.9419 56.1635 14.8526 56.7041 16.6215C57.311 18.5928 58.6901 22.4609 61.2607 22.9084C62.2427 23.0789 63.5666 23.047 64.9237 22.5035C65.6408 22.2158 67.4281 21.3527 68.5866 19.3707C69.2706 18.2092 69.5464 17.6871 70.418 17.2608C71.7751 16.6002 73.419 17.2608 73.6065 17.3248C75.5 18.5 76.2131 19.5836 76.5 20.5C76.5662 20.7238 77.2573 19.6926 77.5 19C77.9634 17.668 79 15.5 78.5 12.5C77.4739 8.74914 75.9235 6.86072 73.3749 5.08119C70.8042 3.28035 65.9056 1.34099 60.6319 1V1.01066Z" fill="#EAE3F0" stroke="white" stroke-miterlimit="10"/>
<path d="M61.2099 1.50023C59.8799 1.41023 58.2299 4.51023 57.8699 5.75023C56.3999 10.8202 57.1599 14.4902 57.6499 16.1502C58.1999 18.0002 59.4499 21.6302 61.7799 22.0502C62.6699 22.2102 63.8699 22.1802 65.0999 21.6702C65.7499 21.4002 67.3699 20.5902 68.4199 18.7302C69.0399 17.6402 69.2899 17.1502 70.0799 16.7502C71.3099 16.1302 72.7999 16.7502 72.9699 16.8102C74.9699 17.6102 76.1399 19.1402 76.3999 20.0002C76.4599 20.2102 76.8799 18.9302 77.0999 18.2802C77.5199 17.0302 78.2899 14.7502 77.5499 11.9602C76.6199 8.44023 75.0699 6.99023 72.7599 5.32023C70.4299 3.63023 65.9899 1.81023 61.2099 1.49023V1.50023Z" fill="#EAE3F0" stroke="#9D72AF" stroke-miterlimit="10"/>
<path d="M63.1301 7.37002C63.71 7.37002 64.1801 6.89992 64.1801 6.32002C64.1801 5.74012 63.71 5.27002 63.1301 5.27002C62.5502 5.27002 62.0801 5.74012 62.0801 6.32002C62.0801 6.89992 62.5502 7.37002 63.1301 7.37002Z" fill="white"/>
<path d="M64.8597 13.2102C65.6274 13.2102 66.2497 12.5879 66.2497 11.8202C66.2497 11.0525 65.6274 10.4302 64.8597 10.4302C64.0921 10.4302 63.4697 11.0525 63.4697 11.8202C63.4697 12.5879 64.0921 13.2102 64.8597 13.2102Z" fill="white"/>
<path d="M71.2198 8.19002C72.0261 8.19002 72.6798 7.53636 72.6798 6.73002C72.6798 5.92368 72.0261 5.27002 71.2198 5.27002C70.4134 5.27002 69.7598 5.92368 69.7598 6.73002C69.7598 7.53636 70.4134 8.19002 71.2198 8.19002Z" fill="white"/>
<path d="M74.0197 14.8402C74.5996 14.8402 75.0697 14.3701 75.0697 13.7902C75.0697 13.2103 74.5996 12.7402 74.0197 12.7402C73.4398 12.7402 72.9697 13.2103 72.9697 13.7902C72.9697 14.3701 73.4398 14.8402 74.0197 14.8402Z" fill="white"/>
<path d="M64.1799 19.2401C64.7598 19.2401 65.2299 18.77 65.2299 18.1901C65.2299 17.6102 64.7598 17.1401 64.1799 17.1401C63.6 17.1401 63.1299 17.6102 63.1299 18.1901C63.1299 18.77 63.6 19.2401 64.1799 19.2401Z" fill="white"/>
<path d="M63.9304 2.06006C63.3804 2.83006 62.6704 4.15006 62.1204 5.55006C61.9504 5.99006 61.4404 7.38006 61.1604 9.38006C60.9204 11.1101 60.5204 14.2901 62.0204 17.7101C62.4404 18.6701 63.2004 20.1101 64.6104 21.5901" stroke="#9D72AF" stroke-miterlimit="10"/>
<path d="M77 24C78.1046 24 79 23.1046 79 22C79 20.8954 78.1046 20 77 20C75.8954 20 75 20.8954 75 22C75 23.1046 75.8954 24 77 24Z" fill="#EAE3F0" stroke="white" stroke-miterlimit="10"/>
<path d="M76.7 23.4C77.6389 23.4 78.4 22.6389 78.4 21.7C78.4 20.7611 77.6389 20 76.7 20C75.7611 20 75 20.7611 75 21.7C75 22.6389 75.7611 23.4 76.7 23.4Z" fill="#EAE3F0" stroke="#9D72AF" stroke-miterlimit="10"/>
</svg>
