<svg width="74" height="100" viewBox="0 0 74 100" fill="none" xmlns="http://www.w3.org/2000/svg">
<path d="M54.0184 4.3443C53.1284 4.9143 52.5484 5.2943 51.8084 5.9443C48.5584 8.8443 47.3884 12.5043 46.5284 16.2143C45.1884 22.0043 45.1984 22.7243 44.9684 24.0843C44.3984 27.5143 40.8684 49.6543 37.4184 49.2743C31.6484 48.6443 25.3584 49.6843 19.4284 52.6243C5.0284 59.7343 -1.8116 75.2943 4.1584 87.3743C10.1284 99.4443 26.6384 103.454 41.0484 96.3343C55.4584 89.2143 62.2984 73.6543 56.3284 61.5843C56.2184 61.3543 56.0984 61.1343 55.9784 60.9143C55.7584 60.5143 55.5684 60.1143 55.4284 59.6843C54.9084 58.1243 53.8284 55.5343 53.5784 51.4643C53.4384 49.1943 54.0884 23.9743 54.7884 19.7643C55.5184 15.3743 57.8484 12.3443 58.7984 12.5343C59.5784 12.6943 59.3484 14.6243 61.4484 16.2243C63.9084 18.0943 65.0084 17.4543 65.9984 18.7143C67.4184 20.5143 65.5484 25.1643 64.9484 26.9843C64.5484 28.1743 71.1584 23.6243 72.6784 20.1343C74.1284 16.7943 73.5784 12.0943 71.1484 10.2543C69.2284 8.8043 68.1684 10.2543 66.1984 8.6543C64.0284 6.8943 62.5984 5.0043 62.3684 3.2943C61.9884 0.424299 56.0884 3.0343 54.0284 4.3543L54.0184 4.3443Z" fill="#CCE9F7" fill-opacity="0.7"/>
<path d="M56.9551 0.75293C57.8229 0.52926 58.5682 0.454269 59.0908 0.567383C59.3436 0.622114 59.518 0.71582 59.6348 0.832031C59.7191 0.916032 59.7919 1.03041 59.8379 1.19434L59.875 1.37598V1.37695C60.1156 3.16424 61.5008 5.0288 63.4814 6.72168L63.8857 7.05859C64.427 7.49806 64.9238 7.74148 65.4023 7.87305C65.8736 8.00258 66.3056 8.01698 66.6816 8.02637C67.3702 8.04355 67.946 8.04434 68.6963 8.55859L68.8486 8.66895C69.9196 9.48005 70.6254 10.9685 70.875 12.7178C71.1232 14.4575 70.9062 16.373 70.2217 17.9502C69.8739 18.7487 69.2185 19.64 68.4072 20.5215C67.601 21.3975 66.6645 22.2386 65.7842 22.9385C64.9751 23.5817 64.2267 24.0927 63.6836 24.4004C64.0028 23.4811 64.4378 22.2197 64.7207 20.9678C64.9075 20.1412 65.0357 19.2894 65.0195 18.5146C65.0044 17.7952 64.8641 17.0865 64.4746 16.5293L64.3926 16.4199C63.7931 15.6576 63.128 15.466 62.4326 15.2383C61.8384 15.0437 61.1269 14.8002 60.1758 14.1475L59.7529 13.8418C58.7976 13.1137 58.374 12.3171 58.0898 11.6572C57.9579 11.3509 57.8229 10.9858 57.6904 10.7354C57.5694 10.5067 57.38 10.2279 57.0508 10.1035L56.9004 10.0605L56.8984 10.0596L56.8008 10.0459C56.5736 10.025 56.3565 10.0876 56.1729 10.1738C55.9588 10.2743 55.7464 10.427 55.542 10.6104C55.1323 10.9779 54.6995 11.5172 54.2871 12.1846C53.5117 13.4394 52.771 15.2023 52.3721 17.2783L52.2969 17.6982C51.94 19.8452 51.6029 27.2459 51.3711 34.3408C51.1536 40.9978 51.0261 47.4824 51.0703 49.2266L51.0811 49.5107C51.2722 52.622 51.9427 54.8942 52.4824 56.4863L52.9561 57.8584C53.0706 58.2093 53.2141 58.5381 53.375 58.8555L53.542 59.1709C53.6023 59.2814 53.6606 59.3886 53.7168 59.4951L53.8789 59.8154L53.8818 59.8213C59.6942 71.5726 53.0688 86.8653 38.8291 93.9014C24.8117 100.827 8.92611 97.0428 2.88867 85.7139L2.6084 85.168C-3.11311 73.5901 3.21844 58.5912 16.9902 51.4238L17.6514 51.0879H17.6523C23.4984 48.1895 29.6925 47.1669 35.3652 47.7861V47.7871C36.084 47.8663 36.6698 47.3526 37.1133 46.7559C37.5798 46.128 38.0224 45.2334 38.4404 44.1816C39.2795 42.0704 40.0678 39.2014 40.7617 36.2373C42.1511 30.3023 43.1794 23.8932 43.4639 22.1816L43.4629 22.1807C43.6647 20.9864 43.6811 20.2975 44.5762 16.2803L45.0176 14.3428C45.8725 10.6545 47.0143 7.12719 50.1406 4.33594C50.7556 3.79573 51.2528 3.45132 51.9521 2.99902L51.9609 3.00781L52.2998 2.79102C53.2942 2.15382 55.236 1.196 56.9551 0.75293Z" fill="#CCE9F7" fill-opacity="0.7" stroke="white"/>
<path d="M17.855 60.3532C18.3881 61.322 18.3358 62.4905 17.7278 63.3745C16.8966 64.5885 15.4524 64.5995 15.332 64.5996" stroke="#231815" stroke-miterlimit="10" stroke-linecap="round"/>
<path d="M32.5783 57.7498C32.4695 58.8427 32.9802 59.9037 33.8917 60.4793C35.1421 61.2673 36.4604 60.7149 36.5767 60.665" stroke="#231815" stroke-miterlimit="10" stroke-linecap="round"/>
<path d="M23.8764 76.2345C23.9848 74.6599 24.398 74.2036 24.7475 74.0638C25.4565 73.7834 26.4812 74.751 27.593 74.4869C28.3502 74.3028 28.3175 73.9141 29.0968 73.2766C29.7724 72.718 29.9218 72.585 30.293 72.5839C30.8245 72.5794 31.3993 73.8055 31.6837 74.3235" stroke="#231815" stroke-miterlimit="10" stroke-linecap="round"/>
<path d="M16.8938 71.8342C17.6737 70.8454 19.9635 71.2248 20.195 71.9479C20.3431 72.3971 19.5554 72.935 19.4357 73.8984C19.3425 74.6991 19.9775 75.3281 20.0779 76.4034C20.1525 77.2903 19.828 77.4882 19.8154 78.4125C19.8025 80.0493 20.4184 80.8104 20.0651 81.382C19.7035 81.9744 18.6322 80.9305 17.6461 80.4213C16.0626 79.6112 15.711 78.0552 15.6859 77.8767C15.6475 77.5387 15.5547 76.7939 15.9437 76.0486C16.3591 75.261 16.6108 75.27 16.7008 74.6703C16.8024 73.9694 16.401 73.6117 16.5814 72.7737C16.6046 72.6914 16.7104 72.0403 16.8921 71.8143L16.8938 71.8342Z" fill="#60BACE"/>
<path d="M37.3747 68.2449C36.4406 67.4002 34.1798 68.082 34.0625 68.8345C33.9914 69.3021 34.8228 69.4028 35.1017 70.3327C35.3273 71.1065 34.8708 71.4058 34.9414 72.4837C35.016 73.3705 35.3374 73.3736 35.5041 74.2829C35.7902 75.8945 35.7301 77.6859 35.7265 78.3586C35.7219 78.9008 37.4257 77.4429 38.0196 76.5099C38.8093 75.2794 39.4692 73.8189 39.4541 73.6396C39.4356 73.2999 39.4026 72.5501 38.8947 71.8803C38.3536 71.1731 37.8313 71.2873 37.6423 70.7111C37.4251 70.0369 38.0368 69.554 37.7189 68.7578C37.6823 68.6806 37.5808 68.4282 37.3639 68.2357L37.3747 68.2449Z" fill="#60BACE"/>
<path d="M21.8655 69.6198C22.0105 71.3437 20.6716 72.1287 18.9477 72.2736C17.2237 72.4186 15.7725 71.8683 15.6275 70.1444C15.4826 68.4205 16.7603 66.9081 18.4842 66.7631C20.2081 66.6181 21.7205 67.8959 21.8655 69.6198Z" fill="#231815"/>
<path d="M17.4036 70.1456C17.7998 70.1123 18.094 69.764 18.0607 69.3678C18.0274 68.9715 17.6791 68.6773 17.2829 68.7107C16.8867 68.744 16.5924 69.0922 16.6258 69.4885C16.6591 69.8847 17.0073 70.1789 17.4036 70.1456Z" fill="white"/>
<path d="M30.8343 67.5609C31.1869 69.2473 32.7036 69.6215 34.3891 69.259C36.0747 68.8964 37.3097 67.9496 36.9571 66.2632C36.6046 64.5769 34.9378 63.4927 33.2515 63.8453C31.5651 64.1978 30.4809 65.8646 30.8335 67.5509L30.8343 67.5609Z" fill="#231815"/>
<path d="M35.1653 66.7955C35.5615 66.7622 35.8557 66.4139 35.8224 66.0177C35.7891 65.6214 35.4409 65.3272 35.0446 65.3606C34.6484 65.3939 34.3542 65.7421 34.3875 66.1384C34.4208 66.5346 34.769 66.8288 35.1653 66.7955Z" fill="white"/>
<path d="M13.5357 72.1164C13.473 74.8312 14.2474 76.4018 14.9365 77.3173C16.2259 79.0453 17.6493 80.2202 19.8253 81.5124C21.1139 82.2771 21.9967 82.3935 22.7158 83.3064C23.6052 84.4559 23.6478 85.7971 22.6024 87.0892C21.557 88.3814 19.9188 88.7098 19.3691 88.8564C15.9151 89.7892 12.7584 87.3351 12.2947 86.9526" stroke="#231815" stroke-miterlimit="10" stroke-linecap="round"/>
<path d="M39.214 68.7526C39.867 71.3871 39.4481 73.0882 38.9839 74.1308C38.1059 76.1013 36.9734 77.5513 35.132 79.2817C34.044 80.3065 33.1972 80.6185 32.7031 81.6636C32.0804 82.9704 32.3322 84.294 33.6335 85.3286C34.9347 86.3631 36.6081 86.3328 37.172 86.3556C40.748 86.5165 43.2885 83.4328 43.6702 82.9591" stroke="#231815" stroke-miterlimit="10" stroke-linecap="round"/>
</svg>
