<svg width="348" height="100" viewBox="0 0 348 100" fill="none" xmlns="http://www.w3.org/2000/svg">
<rect x="1.25" y="1.25" width="333.5" height="77.5" rx="8.75" fill="url(#paint0_radial_2028_2029)" stroke="white" stroke-width="2.5"/>
<g filter="url(#filter0_d_2028_2029)">
<rect x="6" y="10" width="336" height="80" rx="10" fill="url(#paint1_radial_2028_2029)" shape-rendering="crispEdges"/>
<rect x="7.25" y="11.25" width="333.5" height="77.5" rx="8.75" stroke="white" stroke-width="2.5" shape-rendering="crispEdges"/>
</g>
<path d="M141.212 32.824L164.984 32.824V36.016L141.212 36.016V32.824ZM140.288 42.876L165.796 42.876V46.096L140.288 46.096V42.876ZM156.5 34.672L160.028 34.672L160.028 57.548L156.5 57.548L156.5 34.672ZM146.616 34.7L150.088 34.7L150.088 42.064C150.088 43.408 150.013 44.7893 149.864 46.208C149.715 47.608 149.397 48.9893 148.912 50.352C148.445 51.7147 147.727 53.0213 146.756 54.272C145.804 55.504 144.525 56.624 142.92 57.632C142.715 57.3707 142.453 57.0813 142.136 56.764C141.819 56.4467 141.483 56.1387 141.128 55.84C140.792 55.5413 140.484 55.2987 140.204 55.112C141.641 54.2533 142.789 53.3013 143.648 52.256C144.507 51.192 145.151 50.1 145.58 48.98C146.009 47.8413 146.289 46.684 146.42 45.508C146.551 44.332 146.616 43.1747 146.616 42.036L146.616 34.7ZM182.372 53.376L191.304 53.376V56.428L182.372 56.428V53.376ZM180.692 45.76L193.096 45.76L193.096 57.408L189.764 57.408L189.764 48.812L183.856 48.812L183.856 57.52L180.692 57.52L180.692 45.76ZM178.872 40.468C179.992 40.412 181.271 40.3467 182.708 40.272C184.164 40.1973 185.685 40.1133 187.272 40.02C188.877 39.9267 190.464 39.824 192.032 39.712L192.004 42.736C190.511 42.848 188.999 42.9693 187.468 43.1C185.956 43.212 184.491 43.3147 183.072 43.408C181.672 43.5013 180.384 43.5947 179.208 43.688L178.872 40.468ZM187.692 36.94L190.38 35.596C190.959 36.3613 191.528 37.2013 192.088 38.116C192.667 39.0307 193.18 39.9267 193.628 40.804C194.095 41.6813 194.44 42.484 194.664 43.212L191.752 44.752C191.565 44.0427 191.257 43.24 190.828 42.344C190.399 41.4293 189.913 40.5053 189.372 39.572C188.849 38.62 188.289 37.7427 187.692 36.94ZM183.744 31.172L187.496 31.872C187.104 33.0667 186.684 34.2893 186.236 35.54C185.788 36.7907 185.331 37.9947 184.864 39.152C184.416 40.2907 183.977 41.2987 183.548 42.176L180.748 41.476C181.028 40.7667 181.308 39.992 181.588 39.152C181.887 38.2933 182.167 37.4067 182.428 36.492C182.708 35.5587 182.96 34.644 183.184 33.748C183.408 32.8333 183.595 31.9747 183.744 31.172ZM168.092 36.8L177.136 36.8L177.136 39.908L168.092 39.908L168.092 36.8ZM171.872 31.172L175.008 31.536C174.709 33.0107 174.383 34.5693 174.028 36.212C173.692 37.8547 173.328 39.4973 172.936 41.14C172.563 42.7827 172.189 44.3693 171.816 45.9C171.443 47.412 171.079 48.7933 170.724 50.044L168.008 48.588C168.325 47.4867 168.652 46.2267 168.988 44.808C169.343 43.3893 169.688 41.896 170.024 40.328C170.379 38.7413 170.715 37.1733 171.032 35.624C171.349 34.056 171.629 32.572 171.872 31.172ZM169.66 48.14L171.508 45.788C172.479 46.404 173.496 47.0947 174.56 47.86C175.624 48.6253 176.623 49.4 177.556 50.184C178.489 50.968 179.217 51.7147 179.74 52.424L177.724 55.14C177.201 54.4307 176.492 53.656 175.596 52.816C174.719 51.976 173.757 51.1453 172.712 50.324C171.667 49.5027 170.649 48.7747 169.66 48.14ZM175.932 36.8H176.492L177.052 36.716L179.068 37.052C178.863 40.692 178.405 43.8373 177.696 46.488C177.005 49.1387 176.044 51.3693 174.812 53.18C173.58 54.9907 172.031 56.4747 170.164 57.632C169.921 57.2213 169.604 56.7453 169.212 56.204C168.839 55.6813 168.475 55.2613 168.12 54.944C169.707 54.104 171.051 52.872 172.152 51.248C173.253 49.624 174.112 47.6547 174.728 45.34C175.344 43.0067 175.745 40.3653 175.932 37.416V36.8ZM201.748 44.892L204.828 44.892C204.828 44.892 204.819 44.9667 204.8 45.116C204.8 45.2653 204.8 45.4427 204.8 45.648C204.8 45.8533 204.791 46.0213 204.772 46.152C204.679 48.2613 204.567 49.988 204.436 51.332C204.324 52.676 204.175 53.7307 203.988 54.496C203.82 55.2427 203.605 55.7747 203.344 56.092C203.045 56.4653 202.728 56.7267 202.392 56.876C202.075 57.044 201.683 57.156 201.216 57.212C200.843 57.268 200.348 57.3053 199.732 57.324C199.135 57.3427 198.5 57.3333 197.828 57.296C197.791 56.792 197.679 56.232 197.492 55.616C197.324 55 197.1 54.4773 196.82 54.048C197.399 54.0853 197.959 54.1133 198.5 54.132C199.06 54.1507 199.471 54.16 199.732 54.16C199.956 54.16 200.143 54.1413 200.292 54.104C200.441 54.0667 200.581 53.9827 200.712 53.852C200.899 53.6467 201.048 53.2453 201.16 52.648C201.291 52.0507 201.403 51.164 201.496 49.988C201.589 48.7933 201.673 47.244 201.748 45.34V44.892ZM196.96 38.536L199.788 38.536C199.788 39.544 199.769 40.6173 199.732 41.756C199.713 42.8947 199.685 43.9867 199.648 45.032C199.611 46.0773 199.555 46.992 199.48 47.776H196.596C196.671 46.9547 196.736 46.0213 196.792 44.976C196.848 43.9307 196.885 42.848 196.904 41.728C196.941 40.5893 196.96 39.5253 196.96 38.536ZM197.744 44.892L203.176 44.892V47.776L197.408 47.776L197.744 44.892ZM197.548 38.536L201.636 38.536V35.4L196.54 35.4V32.432L204.856 32.432L204.856 41.532L197.548 41.532L197.548 38.536ZM211.94 38.508H215.384L215.384 57.52H211.94L211.94 38.508ZM207.32 32.544L210.008 31.312C210.512 31.984 211.016 32.712 211.52 33.496C212.024 34.28 212.416 34.9707 212.696 35.568L209.924 37.024C209.756 36.6133 209.523 36.1467 209.224 35.624C208.944 35.1013 208.636 34.5693 208.3 34.028C207.964 33.4867 207.637 32.992 207.32 32.544ZM216.84 31.2L220.228 32.152C219.855 32.9173 219.453 33.6827 219.024 34.448C218.613 35.1947 218.193 35.904 217.764 36.576C217.353 37.248 216.961 37.8453 216.588 38.368L213.816 37.444C214.171 36.884 214.535 36.2493 214.908 35.54C215.3 34.812 215.664 34.0747 216 33.328C216.355 32.5627 216.635 31.8533 216.84 31.2ZM209.42 43.912V45.564L217.988 45.564V43.912L209.42 43.912ZM209.42 39.824L209.42 41.476L217.988 41.476L217.988 39.824L209.42 39.824ZM206.396 37.22L221.18 37.22L221.18 48.168L206.396 48.168L206.396 37.22ZM204.884 49.848L222.16 49.848V52.788L204.884 52.788V49.848ZM231.092 45.004L242.656 45.004V47.552L231.092 47.552V45.004ZM227.816 49.036L246.044 49.036L246.044 51.64L227.816 51.64L227.816 49.036ZM235.236 46.124L238.316 46.124V48.112C238.316 48.7653 238.251 49.4467 238.12 50.156C237.989 50.8467 237.728 51.5467 237.336 52.256C236.963 52.9653 236.384 53.6467 235.6 54.3C234.835 54.9347 233.827 55.532 232.576 56.092C231.325 56.6707 229.757 57.1747 227.872 57.604C227.76 57.3613 227.583 57.0907 227.34 56.792C227.116 56.4933 226.864 56.1947 226.584 55.896C226.323 55.616 226.08 55.3827 225.856 55.196C227.536 54.8413 228.945 54.4493 230.084 54.02C231.223 53.572 232.137 53.1053 232.828 52.62C233.519 52.116 234.032 51.6027 234.368 51.08C234.723 50.5573 234.956 50.0347 235.068 49.512C235.18 48.9893 235.236 48.4853 235.236 48V46.124ZM238.344 49.876C239.072 51.3133 240.229 52.4427 241.816 53.264C243.421 54.0667 245.456 54.5707 247.92 54.776C247.603 55.112 247.267 55.5413 246.912 56.064C246.557 56.6053 246.296 57.0907 246.128 57.52C244.28 57.24 242.684 56.8013 241.34 56.204C240.015 55.6067 238.885 54.8227 237.952 53.852C237.019 52.8813 236.253 51.7147 235.656 50.352L238.344 49.876ZM224.26 41.056L249.768 41.056L249.768 43.716L224.26 43.716L224.26 41.056ZM227.312 37.08L246.884 37.08V39.712L227.312 39.712V37.08ZM226.332 33.132L247.948 33.132V35.764L226.332 35.764V33.132ZM240.724 37.584C241.265 39.0587 241.984 40.44 242.88 41.728C243.776 42.9973 244.849 44.1173 246.1 45.088C247.351 46.04 248.76 46.7867 250.328 47.328C250.085 47.552 249.824 47.832 249.544 48.168C249.264 48.4853 248.993 48.8213 248.732 49.176C248.489 49.5307 248.293 49.8573 248.144 50.156C246.483 49.428 244.999 48.4947 243.692 47.356C242.404 46.2173 241.284 44.8827 240.332 43.352C239.38 41.8213 238.577 40.1413 237.924 38.312L240.724 37.584ZM234.536 31.2L237.98 31.452C237.756 33.3373 237.383 35.1947 236.86 37.024C236.337 38.8347 235.6 40.5613 234.648 42.204C233.715 43.8467 232.529 45.3587 231.092 46.74C229.655 48.1213 227.937 49.3347 225.94 50.38C225.791 50.1 225.585 49.8013 225.324 49.484C225.063 49.148 224.783 48.84 224.484 48.56C224.185 48.2613 223.896 48.0373 223.616 47.888C225.557 46.992 227.2 45.9373 228.544 44.724C229.888 43.492 230.98 42.148 231.82 40.692C232.66 39.236 233.295 37.7053 233.724 36.1C234.153 34.4947 234.424 32.8613 234.536 31.2Z" fill="#3F3434"/>
<path d="M116.151 29C115.599 29 115.151 29.6017 115.151 30.3443V31.6557C115.151 32.3983 115.599 33 116.151 33C116.704 33 117.151 32.3983 117.151 31.6557V30.3443C117.151 29.6017 116.704 29 116.151 29Z" fill="#3F3434"/>
<path d="M123.151 29C122.599 29 122.151 29.6017 122.151 30.3443V31.6557C122.151 32.3983 122.599 33 123.151 33C123.704 33 124.151 32.3983 124.151 31.6557V30.3443C124.151 29.6017 123.704 29 123.151 29Z" fill="#3F3434"/>
<path d="M97.9707 51.0996C98.8892 51.0809 99.8021 51.2457 100.656 51.584L100.974 51.7188C101.601 52.004 102.182 52.3809 102.697 52.8379L102.949 53.0732L102.951 53.0752L103.102 53.2344C103.442 53.6133 103.713 54.0508 103.899 54.5264L103.975 54.7314C104.136 55.215 104.21 55.7246 104.191 56.2354V56.2393C104.035 59.1185 101.31 61.25 97.9707 61.25C94.5855 61.2499 91.75 58.9802 91.75 56.1602C91.75 53.3398 94.5848 51.1018 97.9658 51.0996H97.9707ZM97.7207 53.0479C96.6279 53.1062 95.651 53.4549 94.9375 53.9844C94.1702 54.554 93.7188 55.321 93.7188 56.1602C93.7188 57.0001 94.171 57.7746 94.9385 58.3477C95.7062 58.9209 96.778 59.2812 97.9707 59.2812C100.372 59.2812 102.134 57.8708 102.223 56.1074L102.219 55.8721C102.208 55.7162 102.182 55.5617 102.141 55.4111L102.066 55.1875C101.953 54.8959 101.782 54.6299 101.563 54.4062C101.146 54.0137 100.663 53.6977 100.138 53.4707L99.9092 53.3789C99.2934 53.1484 98.6375 53.0427 97.9805 53.0684L97.7207 53.0781V53.0479ZM127.708 37.1455C127.969 37.1456 128.22 37.249 128.404 37.4336L128.47 37.5059C128.613 37.681 128.692 37.9015 128.692 38.1299C128.692 38.3583 128.613 38.5788 128.47 38.7539L128.404 38.8262C128.22 39.0107 127.969 39.1142 127.708 39.1143H111.844C111.583 39.1141 111.333 39.0105 111.148 38.8262C110.964 38.6416 110.859 38.391 110.859 38.1299C110.859 37.8688 110.964 37.6182 111.148 37.4336L111.221 37.3682C111.396 37.2249 111.616 37.1456 111.844 37.1455H127.708Z" fill="#3F3434" stroke="#3F3434" stroke-width="0.5"/>
<path d="M126.337 29.9041L126.604 29.9216C126.869 29.9531 127.128 30.0263 127.371 30.1404L127.606 30.2673C127.759 30.3599 127.901 30.4678 128.03 30.5906L128.214 30.7859L128.221 30.7937L128.363 30.9871C128.685 31.4464 128.921 31.961 129.061 32.5056L129.114 32.74C129.224 33.2852 129.233 33.846 129.145 34.3962L129.146 34.3972L126.744 56.2019C126.662 59.0693 124.033 61.2498 120.774 61.2498C117.514 61.2497 114.804 58.9676 114.804 56.0496C114.804 53.1319 117.514 50.8581 120.772 50.8572H120.774C121.678 50.8517 122.572 51.0316 123.403 51.3845L123.497 51.4216C123.59 51.4639 123.675 51.5208 123.751 51.5896L123.822 51.6619C123.89 51.7377 123.946 51.8235 123.987 51.9167L124.024 52.0115C124.056 52.1081 124.072 52.2093 124.072 52.3113L124.068 52.4128C124.062 52.4805 124.048 52.5472 124.027 52.6121L123.992 52.7078C123.952 52.8014 123.897 52.888 123.83 52.9646L123.759 53.0378C123.659 53.1304 123.541 53.2019 123.413 53.2468C123.285 53.2917 123.148 53.309 123.013 53.2986C122.885 53.2888 122.761 53.2535 122.646 53.196L122.422 53.1091C121.895 52.9193 121.337 52.8228 120.775 52.8259H120.774C118.52 52.826 116.773 54.316 116.772 56.0496C116.772 57.7839 118.521 59.281 120.774 59.281C122.96 59.281 124.674 57.9089 124.779 56.2146L124.784 56.0496C124.778 55.9788 124.778 55.9073 124.786 55.8367L127.165 34.1736L127.166 34.1648L127.168 34.157C127.216 33.8857 127.223 33.6092 127.19 33.3367L127.145 33.0662C127.066 32.7123 126.918 32.377 126.711 32.0798L126.628 31.9958L126.529 31.9314C126.459 31.8958 126.382 31.8759 126.303 31.8728L126.229 31.8699L126.169 31.8279L126.168 31.8269L126.166 31.8259C126.165 31.825 126.163 31.8235 126.161 31.822C126.157 31.8187 126.149 31.8142 126.142 31.8083C126.126 31.7967 126.104 31.7794 126.078 31.7585C126.026 31.717 125.956 31.6578 125.885 31.5857C125.814 31.5142 125.736 31.4255 125.674 31.3259C125.628 31.2525 125.584 31.1644 125.561 31.0662L125.545 30.9646C125.534 30.8066 125.586 30.6621 125.647 30.5476C125.71 30.4313 125.792 30.3264 125.869 30.2419C125.947 30.1566 126.025 30.0855 126.083 30.0359C126.112 30.0109 126.137 29.9903 126.154 29.9763C126.163 29.9695 126.171 29.9646 126.176 29.9607C126.178 29.9587 126.181 29.957 126.183 29.9558L126.186 29.9529L126.253 29.9031L126.337 29.9041ZM113.063 29.9041L113.138 29.9832V29.9841H113.139L113.14 29.9861C113.141 29.9874 113.143 29.9888 113.145 29.991C113.148 29.9952 113.154 30.0011 113.16 30.0085C113.173 30.0234 113.191 30.0448 113.213 30.071C113.256 30.1232 113.313 30.1971 113.37 30.2839C113.427 30.37 113.486 30.4736 113.53 30.5847C113.563 30.6667 113.591 30.7619 113.599 30.8621L113.6 30.9636C113.585 31.1919 113.448 31.4108 113.351 31.5457C113.297 31.619 113.245 31.6815 113.206 31.7253C113.187 31.7473 113.17 31.7656 113.158 31.7781C113.152 31.7843 113.147 31.7891 113.144 31.7927C113.142 31.7945 113.141 31.7965 113.14 31.7976L113.138 31.7986V31.7996L113.064 31.8728H108.51C108.265 31.8728 107.904 32.0849 107.562 32.5544C107.231 33.0088 106.957 33.6541 106.87 34.3982V34.4001L104.183 56.2566C104.155 56.4845 104.049 56.6947 103.885 56.8523L103.812 56.9167C103.631 57.0586 103.407 57.1323 103.18 57.1277L103.082 57.1208C102.854 57.0935 102.643 56.9875 102.485 56.823L102.422 56.7498C102.26 56.5434 102.186 56.2808 102.217 56.0203V56.0193L104.897 34.1628C105.035 32.9889 105.486 31.933 106.121 31.1658C106.755 30.3999 107.592 29.9041 108.495 29.9041H113.063Z" fill="#3F3434" stroke="#3F3434" stroke-width="0.5"/>
<defs>
<filter id="filter0_d_2028_2029" x="4" y="10" width="344" height="90" filterUnits="userSpaceOnUse" color-interpolation-filters="sRGB">
<feFlood flood-opacity="0" result="BackgroundImageFix"/>
<feColorMatrix in="SourceAlpha" type="matrix" values="0 0 0 0 0 0 0 0 0 0 0 0 0 0 0 0 0 0 127 0" result="hardAlpha"/>
<feOffset dx="2" dy="6"/>
<feGaussianBlur stdDeviation="2"/>
<feComposite in2="hardAlpha" operator="out"/>
<feColorMatrix type="matrix" values="0 0 0 0 0 0 0 0 0 0 0 0 0 0 0 0 0 0 0.25 0"/>
<feBlend mode="normal" in2="BackgroundImageFix" result="effect1_dropShadow_2028_2029"/>
<feBlend mode="normal" in="SourceGraphic" in2="effect1_dropShadow_2028_2029" result="shape"/>
</filter>
<radialGradient id="paint0_radial_2028_2029" cx="0" cy="0" r="1" gradientUnits="userSpaceOnUse" gradientTransform="translate(168 40) scale(168 40)">
<stop stop-color="white" stop-opacity="0"/>
<stop offset="1" stop-color="white" stop-opacity="0.5"/>
</radialGradient>
<radialGradient id="paint1_radial_2028_2029" cx="0" cy="0" r="1" gradientUnits="userSpaceOnUse" gradientTransform="translate(174 50) scale(168 40)">
<stop stop-color="white" stop-opacity="0"/>
<stop offset="1" stop-color="white" stop-opacity="0.5"/>
</radialGradient>
</defs>
</svg>
