<svg width="18" height="18" viewBox="0 0 18 18" fill="none" xmlns="http://www.w3.org/2000/svg">
<path d="M12.7002 2.35858C12.9187 2.1441 13.2649 2.10509 13.5293 2.28339L13.7363 2.42792C15.8472 3.95108 17.0996 6.38942 17.0996 9.00018C17.0995 13.4665 13.4663 17.0998 9 17.0998C4.53368 17.0998 0.900491 13.4665 0.900391 9.00018C0.900391 6.30521 2.235 3.79396 4.4707 2.28339L4.58789 2.21991C4.87072 2.10278 5.20672 2.19701 5.38477 2.46014L5.44824 2.57831C5.5482 2.8206 5.49389 3.10182 5.31055 3.28925L5.20801 3.37421C3.33468 4.63963 2.21582 6.74295 2.21582 9.00018C2.21592 12.7407 5.2595 15.7834 9 15.7834C12.7405 15.7834 15.7841 12.7407 15.7842 9.00018C15.7842 6.88404 14.8011 4.90325 13.1348 3.62128L12.792 3.37421C12.491 3.17058 12.412 2.7612 12.6152 2.46014L12.7002 2.35858Z" fill="#6C7072" stroke="#6C7072" stroke-width="0.2"/>
<path d="M7.00842 0.900391C7.37177 0.900631 7.66563 1.1952 7.66565 1.55859V2.10254C7.66565 2.46594 7.37177 2.7605 7.00842 2.76074C6.64487 2.76074 6.35022 2.46609 6.35022 2.10254V1.55859C6.35022 1.19506 6.64487 0.900391 7.00842 0.900391Z" fill="#6C7072" stroke="#6C7072" stroke-width="0.2"/>
<path d="M10.9925 0.900391C11.3558 0.90064 11.6497 1.1952 11.6497 1.55859V2.10254C11.6497 2.46594 11.3558 2.76049 10.9925 2.76074C10.629 2.76074 10.3343 2.46609 10.3343 2.10254V1.55859C10.3343 1.19506 10.6289 0.900391 10.9925 0.900391Z" fill="#6C7072" stroke="#6C7072" stroke-width="0.2"/>
<path d="M7.70093 3.00085C7.9853 2.89564 8.31277 2.99917 8.48218 3.26355H8.48315C8.48765 3.27031 8.54098 3.34862 8.63257 3.42371C8.72423 3.49877 8.8477 3.56531 8.99487 3.56531C9.14597 3.56519 9.27583 3.4929 9.3728 3.41296C9.46482 3.33704 9.5189 3.26045 9.52222 3.25574L9.60718 3.15417C9.82378 2.94148 10.1673 2.89851 10.4314 3.07214L10.5339 3.15515C10.7184 3.33778 10.7789 3.61286 10.6853 3.85535L10.6257 3.97351C10.4102 4.30999 9.82664 4.88155 8.99487 4.88171C8.26265 4.88171 7.72872 4.44022 7.46558 4.10242L7.36987 3.9657C7.17823 3.65695 7.2732 3.25132 7.58179 3.05945L7.70093 3.00085Z" fill="#6C7072" stroke="#6C7072" stroke-width="0.2"/>
<path d="M8.97015 5.73755C9.33349 5.7378 9.62738 6.03235 9.62738 6.39575V9.70923L12.9848 11.3879L13.0981 11.4592C13.3043 11.6214 13.3946 11.8933 13.3266 12.1467L13.2797 12.2708C13.1642 12.5013 12.9309 12.635 12.6899 12.635C12.6157 12.635 12.5407 12.6221 12.4682 12.5959L12.3959 12.5657L8.67523 10.7053C8.66356 10.6995 8.6538 10.6931 8.64886 10.6897C8.6458 10.6876 8.64465 10.6859 8.64301 10.6848L8.64203 10.6838L8.58246 10.6467L8.53363 10.6067L8.48773 10.5627L8.44769 10.5129C8.43584 10.4974 8.42337 10.4803 8.41156 10.4612H8.41058C8.39908 10.4425 8.3906 10.4234 8.38226 10.4065L8.38129 10.4075L8.35492 10.3469L8.33636 10.2874L8.32269 10.2249L8.31488 10.1555C8.31488 10.1555 8.31505 10.1549 8.31488 10.1536C8.31463 10.1516 8.3144 10.1503 8.3139 10.1467C8.31309 10.1408 8.31197 10.1294 8.31195 10.1165V6.39575C8.31195 6.03222 8.6066 5.73755 8.97015 5.73755Z" fill="#6C7072" stroke="#6C7072" stroke-width="0.2"/>
</svg>
