<svg width="39" height="33" viewBox="0 0 39 33" fill="none" xmlns="http://www.w3.org/2000/svg">
<path d="M25.1514 0C24.599 0 24.1514 0.601704 24.1514 1.34426V2.6557C24.1514 3.3983 24.599 4 25.1514 4C25.7038 4 26.1514 3.3983 26.1514 2.6557V1.34426C26.1513 0.60166 25.7038 0 25.1514 0Z" fill="#3F3434"/>
<path d="M32.1514 0C31.5989 0 31.1514 0.601704 31.1514 1.34426V2.6557C31.1514 3.3983 31.599 4 32.1514 4C32.7037 4 33.1514 3.3983 33.1514 2.6557V1.34426C33.1513 0.60166 32.7038 0 32.1514 0Z" fill="#3F3434"/>
<path d="M6.9707 22.0996C7.88919 22.0809 8.80208 22.2457 9.65625 22.584C10.4051 22.8805 11.096 23.3047 11.6973 23.8379L11.9492 24.0732L11.9512 24.0752L12.1016 24.2344C12.4424 24.6133 12.7127 25.0508 12.8994 25.5264C13.1128 26.07 13.2123 26.6518 13.1914 27.2354V27.2393C13.0353 30.1185 10.3096 32.25 6.9707 32.25C3.58546 32.2499 0.750033 29.9802 0.75 27.1602C0.75 24.3398 3.58483 22.1018 6.96582 22.0996H6.9707ZM6.7207 24.0479C5.6279 24.1062 4.65099 24.4549 3.9375 24.9844C3.17022 25.554 2.71875 26.321 2.71875 27.1602C2.71877 28.0001 3.17098 28.7746 3.93848 29.3477C4.70625 29.9209 5.778 30.2812 6.9707 30.2812C9.37207 30.2812 11.1338 28.8708 11.2227 27.1074L11.2188 26.8721C11.2029 26.638 11.1518 26.407 11.0664 26.1875C10.9529 25.8959 10.7822 25.6299 10.5635 25.4062C10.0857 24.9574 9.52308 24.6087 8.90918 24.3789C8.2934 24.1484 7.63746 24.0427 6.98047 24.0684L6.7207 24.0781V24.0479ZM36.708 8.14551C36.969 8.14556 37.2197 8.24902 37.4043 8.43359C37.5889 8.61819 37.6924 8.86885 37.6924 9.12988L37.6875 9.22754C37.6651 9.45273 37.5657 9.66472 37.4043 9.82617C37.2197 10.0107 36.969 10.1142 36.708 10.1143H20.8438C20.5829 10.1141 20.3329 10.0105 20.1484 9.82617C19.9638 9.64156 19.8594 9.39097 19.8594 9.12988C19.8594 8.86882 19.9638 8.6182 20.1484 8.43359C20.3329 8.24926 20.583 8.14563 20.8438 8.14551H36.708Z" fill="#3F3434" stroke="#3F3434" stroke-width="0.5"/>
<path d="M35.3369 0.904053L35.6035 0.921631C35.8689 0.953071 36.1282 1.02634 36.3711 1.14038L36.6064 1.26733C36.7587 1.35986 36.9011 1.46784 37.0303 1.59058L37.2139 1.78589L37.2207 1.7937L37.3633 1.98706C37.6849 2.44644 37.9215 2.96102 38.0605 3.50562L38.1143 3.73999C38.2238 4.28517 38.233 4.846 38.1445 5.39624L38.1455 5.39722L35.7441 27.2019C35.6617 30.0693 33.033 32.2498 29.7744 32.2498C26.514 32.2497 23.8037 29.9676 23.8037 27.0496C23.8039 24.1319 26.5136 21.8581 29.7725 21.8572H29.7744C30.6776 21.8517 31.5721 22.0316 32.4033 22.3845L32.4971 22.4216C32.5897 22.4639 32.6754 22.5208 32.751 22.5896L32.8223 22.6619C32.89 22.7377 32.9458 22.8235 32.9873 22.9167L33.0244 23.0115C33.056 23.1081 33.0716 23.2093 33.0723 23.3113L33.0684 23.4128C33.0618 23.4805 33.0477 23.5472 33.0273 23.6121L32.9922 23.7078C32.9517 23.8014 32.8969 23.888 32.8301 23.9646L32.7588 24.0378C32.6593 24.1304 32.5414 24.2019 32.4131 24.2468C32.2848 24.2917 32.1482 24.309 32.0127 24.2986C31.885 24.2888 31.7608 24.2535 31.6465 24.196L31.4219 24.1091C30.8946 23.9193 30.3371 23.8228 29.7754 23.8259H29.7744C27.5201 23.826 25.7727 25.316 25.7725 27.0496C25.7725 28.7839 27.5207 30.281 29.7744 30.281C31.9603 30.281 33.6745 28.9089 33.7793 27.2146L33.7842 27.0496C33.7779 26.9788 33.7778 26.9073 33.7861 26.8367L36.165 5.17358L36.166 5.16479L36.168 5.15698C36.2164 4.88575 36.2233 4.6092 36.1904 4.33667L36.1445 4.06616C36.0658 3.71228 35.9184 3.37701 35.7109 3.07983L35.6279 2.99585L35.5293 2.9314C35.4589 2.89579 35.3816 2.87594 35.3027 2.8728L35.2295 2.86987L35.1689 2.82788L35.168 2.8269L35.166 2.82593C35.1647 2.82499 35.1632 2.8235 35.1611 2.82202C35.1565 2.8187 35.1495 2.8142 35.1416 2.80835C35.1259 2.79666 35.1042 2.77944 35.0781 2.75854C35.0264 2.71704 34.9563 2.65777 34.8848 2.58569C34.8139 2.51418 34.7365 2.42545 34.6738 2.32593C34.6277 2.25253 34.5837 2.16437 34.5605 2.06616L34.5449 1.9646C34.5338 1.80659 34.586 1.66211 34.6475 1.54761C34.7099 1.43131 34.7921 1.32644 34.8691 1.24194C34.9469 1.15663 35.0251 1.08555 35.083 1.03589C35.1121 1.01092 35.1366 0.990309 35.1543 0.976318C35.163 0.969466 35.1706 0.964628 35.1758 0.960693C35.1784 0.958716 35.1811 0.956986 35.1826 0.955811L35.1855 0.952881L35.2529 0.903076L35.3369 0.904053ZM22.0635 0.904053L22.1377 0.983154V0.984131H22.1387L22.1396 0.986084C22.1408 0.987355 22.1426 0.988849 22.1445 0.990967C22.1484 0.995194 22.1536 1.00113 22.1602 1.00854C22.1733 1.02343 22.1914 1.04479 22.2129 1.07104C22.2557 1.12324 22.3132 1.19706 22.3701 1.28394C22.4266 1.37004 22.486 1.47362 22.5303 1.58472C22.5629 1.66674 22.5905 1.76188 22.5986 1.86206L22.5996 1.96362C22.5847 2.1919 22.4484 2.4108 22.3506 2.54565C22.2974 2.61897 22.2448 2.68147 22.2061 2.72534C22.1866 2.74731 22.17 2.76557 22.1582 2.77808C22.1523 2.78431 22.147 2.78914 22.1436 2.79272C22.1418 2.79452 22.1407 2.79652 22.1396 2.79761L22.1377 2.79858V2.79956L22.0645 2.8728H17.5098C17.2645 2.8728 16.9035 3.08494 16.5615 3.55444C16.2306 4.0088 15.9571 4.65407 15.8701 5.39819V5.40015L13.1826 27.2566C13.1551 27.4845 13.049 27.6947 12.8848 27.8523L12.8115 27.9167C12.631 28.0586 12.4072 28.1323 12.1797 28.1277L12.082 28.1208C11.8538 28.0935 11.6431 27.9875 11.4854 27.823L11.4219 27.7498C11.2597 27.5434 11.1856 27.2808 11.2168 27.0203V27.0193L13.8975 5.16284C14.035 3.98887 14.4856 2.93299 15.1211 2.16577C15.7555 1.39991 16.5918 0.904053 17.4951 0.904053H22.0635Z" fill="#3F3434" stroke="#3F3434" stroke-width="0.5"/>
</svg>
