<svg width="20" height="17" viewBox="0 0 20 17" fill="none" xmlns="http://www.w3.org/2000/svg">
<path d="M3.98535 10.9253C4.46025 10.9159 4.93236 11.0004 5.37402 11.1753L5.53906 11.2456C5.86382 11.3934 6.16469 11.5889 6.43164 11.8257L6.56152 11.9478L6.56445 11.9497L6.71875 12.1216C6.8641 12.3009 6.98172 12.5016 7.06641 12.7173L7.13965 12.937C7.20149 13.1593 7.22893 13.3901 7.2207 13.6216V13.6265C7.13809 15.1507 5.70117 16.2495 3.98535 16.2495C2.24883 16.2495 0.75 15.0814 0.75 13.5796C0.750305 12.0763 2.25113 10.9244 3.98535 10.9243V10.9253ZM3.73535 12.1694V12.1597C3.26516 12.2065 2.85051 12.3649 2.54395 12.5923C2.18415 12.8593 1.98454 13.2086 1.98438 13.5796C1.98438 13.9514 2.18404 14.305 2.54395 14.5737C2.90413 14.8427 3.41321 15.0151 3.98535 15.0151C5.14719 15.0151 5.94748 14.3374 5.98633 13.5454C5.98942 13.4418 5.9777 13.3384 5.9502 13.2388L5.91699 13.1392C5.86615 13.0085 5.78864 12.8896 5.69043 12.7896H5.68945C5.52093 12.6323 5.33106 12.5004 5.125 12.3989L4.91113 12.3062C4.61879 12.1967 4.30702 12.1465 3.99512 12.1587L3.73535 12.1694ZM18.8535 3.94775C19.0171 3.94775 19.1743 4.0128 19.29 4.12842L19.3672 4.22217C19.4345 4.3229 19.4707 4.44203 19.4707 4.56494C19.4707 4.68785 19.4344 4.80699 19.3672 4.90771L19.29 5.00146C19.1743 5.1171 19.0171 5.18213 18.8535 5.18213H10.9219C10.7993 5.18208 10.6806 5.14555 10.5801 5.07861L10.4854 5.00146C10.3697 4.88573 10.3047 4.72858 10.3047 4.56494C10.3047 4.4013 10.3697 4.24415 10.4854 4.12842C10.601 4.01272 10.7583 3.94781 10.9219 3.94775H18.8535Z" fill="black" stroke="black" stroke-width="0.5"/>
<path d="M18.1696 0.327026L18.3171 0.336792C18.4629 0.354117 18.6055 0.394236 18.739 0.456909L18.8688 0.527222C18.9524 0.578058 19.0304 0.637571 19.1013 0.704956L19.2028 0.811401L19.2087 0.82019L19.3542 1.02722C19.4883 1.24146 19.5883 1.47571 19.6511 1.72156L19.7018 1.9696C19.7388 2.21975 19.737 2.47492 19.696 2.72546L19.695 2.72449L18.4968 13.6151C18.4471 15.1269 17.0633 16.2499 15.3874 16.2499C13.7061 16.2499 12.2772 15.0697 12.277 13.5253C12.277 11.9808 13.7054 10.8045 15.3854 10.8036H15.3874C15.8591 10.8008 16.3268 10.8953 16.7604 11.0809L16.7595 11.0819C16.8331 11.1094 16.9014 11.1491 16.9597 11.202L17.0446 11.2968C17.0695 11.3311 17.0907 11.3682 17.1081 11.4071L17.1481 11.5282C17.1571 11.5698 17.1616 11.6124 17.1618 11.6552L17.1491 11.7821L17.111 11.9032C17.0772 11.9814 17.0269 12.0511 16.9645 12.1093L16.9655 12.1102C16.9032 12.1683 16.8291 12.2129 16.7487 12.2411C16.6682 12.2693 16.5818 12.2808 16.4968 12.2743C16.4194 12.2683 16.3448 12.2457 16.2751 12.2118V12.2137C15.9944 12.0964 15.6926 12.0363 15.3884 12.038H15.3874C14.3043 12.038 13.5114 12.7499 13.5114 13.5253C13.5116 14.3011 14.3052 15.0155 15.3874 15.0155C16.4042 15.0155 17.1669 14.4021 17.2585 13.6727L17.2673 13.5253C17.2644 13.4849 17.2645 13.4444 17.2692 13.4042L18.4587 2.57312L18.4597 2.56433L18.4606 2.55652C18.4827 2.43317 18.4863 2.30741 18.4714 2.18347L18.4509 2.06042C18.4153 1.90084 18.3487 1.74943 18.2556 1.61511L18.2087 1.57703C18.1894 1.56727 18.1678 1.56224 18.1462 1.5614L18.0729 1.55847L18.0134 1.51648L18.0124 1.5155H18.0114C18.0105 1.51483 18.0089 1.51359 18.0075 1.51257C18.0048 1.51059 18.0011 1.50799 17.9968 1.50476C17.9878 1.4981 17.975 1.48897 17.9606 1.47742C17.9322 1.45463 17.8941 1.421 17.8542 1.38074C17.8148 1.34107 17.769 1.2895 17.7311 1.22937C17.7036 1.18558 17.6746 1.12845 17.6589 1.0614L17.6481 0.991089C17.6403 0.8798 17.6768 0.783335 17.7136 0.714722C17.7513 0.644378 17.8 0.583593 17.8425 0.536987C17.8858 0.489439 17.9291 0.449815 17.9606 0.422729C17.9764 0.409236 17.9898 0.398344 17.9997 0.390503C18.0047 0.386547 18.0093 0.383109 18.0124 0.380737C18.0139 0.379585 18.0153 0.378564 18.0163 0.377808L18.0173 0.376831H18.0182V0.375854L18.0856 0.32605L18.1696 0.327026ZM11.5866 0.327026L11.6599 0.406128L11.4772 0.577026L11.6608 0.406128V0.407104L11.6647 0.411011C11.6671 0.41357 11.6708 0.417532 11.6745 0.421753C11.6819 0.430157 11.6921 0.441671 11.7038 0.455933C11.7271 0.484394 11.7583 0.525144 11.7897 0.57312C11.8208 0.620463 11.8553 0.680139 11.8815 0.745972C11.9006 0.793894 11.9191 0.854182 11.9245 0.920776V0.990112C11.9145 1.14256 11.8264 1.27721 11.7761 1.34656C11.7465 1.38729 11.7182 1.42212 11.697 1.44617C11.6862 1.45827 11.6763 1.46737 11.6696 1.47449C11.6664 1.47794 11.6639 1.48112 11.6618 1.48328L11.6579 1.48718V1.48816L11.4802 1.3114L11.6569 1.48816L11.5837 1.5614H9.25458C9.19269 1.56167 9.04465 1.62654 8.88153 1.85046C8.72906 2.05979 8.60033 2.36234 8.55927 2.71375V2.7157L7.21552 13.6434C7.20075 13.7656 7.14976 13.8794 7.07098 13.9716L6.98309 14.0565C6.88611 14.1327 6.76931 14.1779 6.64813 14.1874L6.52606 14.1844C6.4036 14.1697 6.2893 14.119 6.19696 14.0399L6.11298 13.952C6.01141 13.8228 5.96546 13.6582 5.98505 13.495L7.32489 2.56628C7.39627 1.95777 7.63017 1.4065 7.96454 1.00281C8.29781 0.600577 8.74841 0.327026 9.24774 0.327026H11.5866Z" fill="black" stroke="black" stroke-width="0.5"/>
</svg>
