<svg width="48" height="45" viewBox="0 0 48 45" fill="none" xmlns="http://www.w3.org/2000/svg">
<g filter="url(#filter0_d_2028_2559)">
<path d="M29.5312 20L42.4062 7.125C43.9375 5.59375 43.9375 3.125 42.4062 1.59375C40.875 0.0625 38.4062 0.0625 36.875 1.59375L24 14.4688L11.125 1.625C9.59375 0.09375 7.125 0.09375 5.59375 1.625C4.0625 3.15625 4.0625 5.625 5.59375 7.15625L18.4688 20.0313L5.59375 32.9062C5.22997 33.2691 4.94136 33.7002 4.74443 34.1747C4.54751 34.6493 4.44614 35.1581 4.44614 35.6719C4.44614 36.1857 4.54751 36.6944 4.74443 37.169C4.94136 37.6436 5.22997 38.0746 5.59375 38.4375C6.34375 39.1875 7.34375 39.5938 8.34375 39.5938C9.34375 39.5938 10.3438 39.2187 11.0938 38.4375L23.9688 25.5625L36.8437 38.4375C37.5937 39.1875 38.5938 39.5938 39.5938 39.5938C40.5938 39.5938 41.5938 39.2187 42.3438 38.4375C43.875 36.9062 43.875 34.4375 42.3438 32.9062L29.4688 20.0313L29.5312 20Z" fill="white" fill-opacity="0.5" shape-rendering="crispEdges"/>
<path d="M37.4053 2.12402C38.6436 0.885667 40.6376 0.885667 41.876 2.12402C43.0757 3.32373 43.1131 5.23259 41.9883 6.47656L41.876 6.59473L29.0859 19.3838L28.2031 19.8262L41.8135 33.4365C43.0518 34.6749 43.0518 36.6689 41.8135 37.9072L41.8076 37.9121L41.8027 37.918C41.2054 38.5402 40.4064 38.8438 39.5938 38.8438C38.845 38.8438 38.0865 38.5576 37.4912 38.0186L37.374 37.9072L23.9688 24.502L10.5635 37.9072L10.5576 37.9121L10.5527 37.918C9.95542 38.5402 9.15638 38.8438 8.34375 38.8438C7.59496 38.8437 6.83649 38.5576 6.24121 38.0186L6.12402 37.9072L6.12305 37.9062L6.01562 37.7939C5.80675 37.5639 5.63304 37.3042 5.5 37.0234L5.4375 36.8818C5.27838 36.4984 5.19629 36.087 5.19629 35.6719C5.19629 35.3087 5.25865 34.9486 5.38086 34.6074L5.4375 34.4619C5.57667 34.1266 5.77209 33.818 6.01562 33.5498L6.12305 33.4375L19.5293 20.0312L6.12402 6.62598C4.92432 5.42627 4.88691 3.51741 6.01172 2.27344L6.12402 2.15527C7.32373 0.955571 9.23259 0.918161 10.4766 2.04297L10.5947 2.15527L10.5957 2.15625L23.4707 15L24.001 15.5283L37.4053 2.12402Z" stroke="white" stroke-width="1.5" shape-rendering="crispEdges"/>
</g>
<defs>
<filter id="filter0_d_2028_2559" x="0.445312" y="0.445312" width="47.1094" height="47.1484" filterUnits="userSpaceOnUse" color-interpolation-filters="sRGB">
<feFlood flood-opacity="0" result="BackgroundImageFix"/>
<feColorMatrix in="SourceAlpha" type="matrix" values="0 0 0 0 0 0 0 0 0 0 0 0 0 0 0 0 0 0 127 0" result="hardAlpha"/>
<feOffset dy="4"/>
<feGaussianBlur stdDeviation="2"/>
<feComposite in2="hardAlpha" operator="out"/>
<feColorMatrix type="matrix" values="0 0 0 0 0 0 0 0 0 0 0 0 0 0 0 0 0 0 0.25 0"/>
<feBlend mode="normal" in2="BackgroundImageFix" result="effect1_dropShadow_2028_2559"/>
<feBlend mode="normal" in="SourceGraphic" in2="effect1_dropShadow_2028_2559" result="shape"/>
</filter>
</defs>
</svg>
