<svg width="50" height="50" viewBox="0 0 50 50" fill="none" xmlns="http://www.w3.org/2000/svg">
<path d="M30.5312 25L43.4062 12.125C44.9375 10.5938 44.9375 8.125 43.4062 6.59375C41.875 5.0625 39.4062 5.0625 37.875 6.59375L25 19.4688L12.125 6.625C10.5938 5.09375 8.125 5.09375 6.59375 6.625C5.0625 8.15625 5.0625 10.625 6.59375 12.1563L19.4688 25.0313L6.59375 37.9062C6.22997 38.2691 5.94136 38.7002 5.74443 39.1747C5.54751 39.6493 5.44614 40.1581 5.44614 40.6719C5.44614 41.1857 5.54751 41.6944 5.74443 42.169C5.94136 42.6436 6.22997 43.0746 6.59375 43.4375C7.34375 44.1875 8.34375 44.5938 9.34375 44.5938C10.3438 44.5938 11.3438 44.2187 12.0938 43.4375L24.9688 30.5625L37.8437 43.4375C38.5937 44.1875 39.5938 44.5938 40.5938 44.5938C41.5938 44.5938 42.5938 44.2187 43.3438 43.4375C44.875 41.9062 44.875 39.4375 43.3438 37.9062L30.4688 25.0313L30.5312 25Z" fill="black"/>
</svg>
