<svg width="35" height="35" viewBox="0 0 35 35" fill="none" xmlns="http://www.w3.org/2000/svg">
<path d="M25.5204 10.6138L29.3037 8.93266C29.5257 8.83386 29.7689 8.79211 30.0111 8.81121C30.2534 8.83031 30.487 8.90965 30.6908 9.04202C30.8945 9.17439 31.062 9.35559 31.1779 9.56915C31.2938 9.78271 31.3545 10.0219 31.3545 10.2648V24.7352C31.3545 24.9781 31.2938 25.2173 31.1779 25.4309C31.062 25.6444 30.8945 25.8256 30.6908 25.958C30.487 26.0904 30.2534 26.1697 30.0111 26.1888C29.7689 26.2079 29.5257 26.1661 29.3037 26.0673L25.5204 24.3862V26.25C25.5204 27.0235 25.2133 27.7652 24.6665 28.3123C24.1196 28.8593 23.378 29.1667 22.6045 29.167H6.56248C5.78883 29.167 5.04688 28.8597 4.49983 28.3127C3.95278 27.7656 3.64545 27.0236 3.64545 26.25V8.75C3.64545 7.97636 3.95278 7.2344 4.49983 6.68735C5.04688 6.1403 5.78883 5.83297 6.56248 5.83297H22.6045C23.378 5.83326 24.1196 6.14072 24.6665 6.68773C25.2133 7.23475 25.5204 7.97655 25.5204 8.75V10.6138ZM10.9375 13.0288V21.9713C10.9378 22.103 10.9738 22.2323 11.0417 22.3452C11.1096 22.4582 11.2068 22.5506 11.323 22.6128C11.4392 22.6749 11.5701 22.7044 11.7017 22.6982C11.8333 22.6919 11.9608 22.6501 12.0706 22.5772L18.7775 18.107C18.8774 18.0404 18.9594 17.9502 19.016 17.8443C19.0727 17.7384 19.1024 17.6201 19.1024 17.5C19.1024 17.3799 19.0727 17.2616 19.016 17.1557C18.9594 17.0499 18.8774 16.9596 18.7775 16.893L12.0706 12.4228C11.9608 12.3499 11.8333 12.3081 11.7017 12.3018C11.5701 12.2956 11.4392 12.3251 11.323 12.3872C11.2068 12.4494 11.1096 12.5418 11.0417 12.6548C10.9738 12.7677 10.9378 12.897 10.9375 13.0288Z" fill="black"/>
</svg>
