<svg width="80" height="80" viewBox="0 0 80 80" fill="none" xmlns="http://www.w3.org/2000/svg">
<g clip-path="url(#clip0_2028_2552)">
<g filter="url(#filter0_d_2028_2552)">
<path d="M30.645 40.2349C30.645 41.4634 30.887 42.6799 31.3571 43.8149C31.8273 44.9499 32.5163 45.9812 33.385 46.8499C34.2537 47.7186 35.285 48.4076 36.42 48.8778C37.555 49.3479 38.7715 49.5899 40 49.5899C41.2285 49.5899 42.445 49.3479 43.58 48.8778C44.715 48.4076 45.7463 47.7186 46.615 46.8499C47.4837 45.9812 48.1728 44.9499 48.6429 43.8149C49.113 42.6799 49.355 41.4634 49.355 40.2349C49.355 39.0064 49.113 37.7899 48.6429 36.6549C48.1728 35.5199 47.4837 34.4886 46.615 33.6199C45.7463 32.7512 44.715 32.0621 43.58 31.592C42.445 31.1219 41.2285 30.8799 40 30.8799C38.7715 30.8799 37.555 31.1219 36.42 31.592C35.285 32.0621 34.2537 32.7512 33.385 33.6199C32.5163 34.4886 31.8273 35.5199 31.3571 36.6549C30.887 37.7899 30.645 39.0064 30.645 40.2349Z" fill="white" fill-opacity="0.5" shape-rendering="crispEdges"/>
<path d="M40.0005 31.6299C40.9891 31.6299 41.9691 31.8006 42.8979 32.1328L43.2935 32.2852C44.2067 32.6635 45.0469 33.196 45.7778 33.8584L46.0845 34.1504C46.8834 34.9493 47.5173 35.8976 47.9497 36.9414C48.3821 37.9854 48.605 39.1053 48.605 40.2354C48.6049 41.3652 48.3821 42.4845 47.9497 43.5283C47.5714 44.4416 47.0388 45.2817 46.3765 46.0127L46.0845 46.3193C45.2855 47.1183 44.3373 47.7521 43.2935 48.1846C42.2496 48.617 41.1304 48.8398 40.0005 48.8398C38.8705 48.8398 37.7506 48.617 36.7065 48.1846C35.7933 47.8062 34.9531 47.2737 34.2222 46.6113L33.9155 46.3193C33.2164 45.6202 32.6431 44.8069 32.2212 43.915L32.0503 43.5283C31.6179 42.4845 31.3951 41.3652 31.395 40.2354L31.4058 39.8115C31.4474 38.9669 31.6132 38.1331 31.8979 37.3369L32.0503 36.9414C32.4286 36.0282 32.9612 35.188 33.6235 34.457L33.9155 34.1504C34.6147 33.4512 35.428 32.878 36.3198 32.4561L36.7065 32.2852C37.62 31.9068 38.5913 31.6892 39.5767 31.6406L40.0005 31.6299Z" stroke="white" stroke-width="1.5" shape-rendering="crispEdges"/>
</g>
<g filter="url(#filter1_d_2028_2552)">
<path d="M40 5.31494C30.7418 5.32553 21.866 9.00799 15.3195 15.5545C8.773 22.1009 5.09054 30.9768 5.07996 40.2349C5.08922 49.4935 8.77126 58.3701 15.318 64.9169C21.8648 71.4636 30.7414 75.1457 40 75.1549C49.2585 75.1457 58.1351 71.4636 64.6819 64.9169C71.2287 58.3701 74.9107 49.4935 74.92 40.2349C74.9107 30.9764 71.2287 22.0998 64.6819 15.553C58.1351 9.00624 49.2585 5.32421 40 5.31494ZM40 70.1549C23.5 70.1549 10.08 56.7299 10.08 40.2349C10.08 23.7399 23.5 10.3149 40 10.3149C56.5 10.3149 69.92 23.7399 69.92 40.2349C69.92 56.7299 56.5 70.1549 40 70.1549Z" fill="white" fill-opacity="0.5" shape-rendering="crispEdges"/>
<path d="M39.9999 5.81494C49.1258 5.82419 57.875 9.45377 64.328 15.9067C70.5795 22.1583 74.1809 30.565 74.4081 39.3813L74.4198 40.2358C74.4103 49.3614 70.7808 58.1102 64.328 64.563C57.875 71.016 49.1258 74.6446 39.9999 74.6538C31.1591 74.6448 22.6717 71.2394 16.2831 65.1597L15.6718 64.563C9.21901 58.1102 5.58946 49.3614 5.57996 40.2358C5.59007 31.3955 8.99675 22.9084 15.076 16.52L15.6727 15.9077C22.1254 9.45502 30.8744 5.82555 39.9999 5.81494ZM39.9999 9.81494C23.2237 9.81498 9.58 23.4638 9.57996 40.2349C9.57996 57.0059 23.2237 70.6547 39.9999 70.6548C56.7761 70.6548 70.4198 57.006 70.4198 40.2349C70.4198 23.4638 56.776 9.81494 39.9999 9.81494Z" stroke="white" shape-rendering="crispEdges"/>
</g>
</g>
<defs>
<filter id="filter0_d_2028_2552" x="26.645" y="30.8799" width="26.71" height="26.71" filterUnits="userSpaceOnUse" color-interpolation-filters="sRGB">
<feFlood flood-opacity="0" result="BackgroundImageFix"/>
<feColorMatrix in="SourceAlpha" type="matrix" values="0 0 0 0 0 0 0 0 0 0 0 0 0 0 0 0 0 0 127 0" result="hardAlpha"/>
<feOffset dy="4"/>
<feGaussianBlur stdDeviation="2"/>
<feComposite in2="hardAlpha" operator="out"/>
<feColorMatrix type="matrix" values="0 0 0 0 0 0 0 0 0 0 0 0 0 0 0 0 0 0 0.25 0"/>
<feBlend mode="normal" in2="BackgroundImageFix" result="effect1_dropShadow_2028_2552"/>
<feBlend mode="normal" in="SourceGraphic" in2="effect1_dropShadow_2028_2552" result="shape"/>
</filter>
<filter id="filter1_d_2028_2552" x="1.07996" y="5.31494" width="77.84" height="77.8401" filterUnits="userSpaceOnUse" color-interpolation-filters="sRGB">
<feFlood flood-opacity="0" result="BackgroundImageFix"/>
<feColorMatrix in="SourceAlpha" type="matrix" values="0 0 0 0 0 0 0 0 0 0 0 0 0 0 0 0 0 0 127 0" result="hardAlpha"/>
<feOffset dy="4"/>
<feGaussianBlur stdDeviation="2"/>
<feComposite in2="hardAlpha" operator="out"/>
<feColorMatrix type="matrix" values="0 0 0 0 0 0 0 0 0 0 0 0 0 0 0 0 0 0 0.25 0"/>
<feBlend mode="normal" in2="BackgroundImageFix" result="effect1_dropShadow_2028_2552"/>
<feBlend mode="normal" in="SourceGraphic" in2="effect1_dropShadow_2028_2552" result="shape"/>
</filter>
<clipPath id="clip0_2028_2552">
<rect width="80" height="80" fill="white"/>
</clipPath>
</defs>
</svg>
