<svg width="80" height="80" viewBox="0 0 80 80" fill="none" xmlns="http://www.w3.org/2000/svg">
<path d="M30.645 40.235C30.645 41.4635 30.887 42.68 31.3571 43.815C31.8273 44.95 32.5163 45.9813 33.385 46.85C34.2537 47.7187 35.285 48.4078 36.42 48.8779C37.555 49.348 38.7715 49.59 40 49.59C41.2285 49.59 42.445 49.348 43.58 48.8779C44.715 48.4078 45.7463 47.7187 46.615 46.85C47.4837 45.9813 48.1728 44.95 48.6429 43.815C49.113 42.68 49.355 41.4635 49.355 40.235C49.355 39.0065 49.113 37.79 48.6429 36.655C48.1728 35.52 47.4837 34.4887 46.615 33.62C45.7463 32.7513 44.715 32.0622 43.58 31.5921C42.445 31.122 41.2285 30.88 40 30.88C38.7715 30.88 37.555 31.122 36.42 31.5921C35.285 32.0622 34.2537 32.7513 33.385 33.62C32.5163 34.4887 31.8273 35.52 31.3571 36.655C30.887 37.79 30.645 39.0065 30.645 40.235Z" fill="#333333"/>
<path d="M40 5.315C30.7418 5.32559 21.866 9.00805 15.3195 15.5545C8.773 22.101 5.09054 30.9769 5.07996 40.235C5.08922 49.4935 8.77126 58.3702 15.318 64.9169C21.8648 71.4637 30.7414 75.1457 40 75.155C49.2585 75.1457 58.1351 71.4637 64.6819 64.9169C71.2287 58.3702 74.9107 49.4935 74.92 40.235C74.9107 30.9765 71.2287 22.0998 64.6819 15.5531C58.1351 9.00631 49.2585 5.32427 40 5.315ZM40 70.155C23.5 70.155 10.08 56.73 10.08 40.235C10.08 23.74 23.5 10.315 40 10.315C56.5 10.315 69.92 23.74 69.92 40.235C69.92 56.73 56.5 70.155 40 70.155Z" fill="#333333"/>
</svg>
