<svg width="68" height="68" viewBox="0 0 68 68" fill="none" xmlns="http://www.w3.org/2000/svg">
<g filter="url(#filter0_d_2028_2631)">
<path d="M55.2143 8.78579C49.9551 3.54248 42.9322 0.444984 35.514 0.0968473C28.0958 -0.251289 20.8137 2.17487 15.0866 6.9026C9.35955 11.6303 5.59775 18.3209 4.53422 25.6707C3.4707 33.0206 5.18163 40.5031 9.33366 46.6603C13.4857 52.8175 19.7814 57.2084 26.994 58.9774C34.2066 60.7463 41.8194 59.7666 48.3492 56.2292C54.8789 52.6917 59.8577 46.85 62.3155 39.8421C64.7734 32.8342 64.5341 25.1623 61.6443 18.3213C60.1368 14.7574 57.9532 11.5193 55.2143 8.78579ZM59.0978 30.0072C59.0964 34.9708 57.6232 39.8225 54.8646 43.9489C52.1059 48.0753 48.1857 51.291 43.5996 53.1895C39.0134 55.0881 33.9673 55.5841 29.0992 54.6149C24.2312 53.6457 19.7598 51.2548 16.2506 47.7445C12.7413 44.2342 10.3516 39.7622 9.38379 34.8939C8.41596 30.0256 8.9134 24.9796 10.8132 20.394C12.713 15.8083 15.9299 11.889 20.057 9.13153C24.1842 6.37405 29.0363 4.90227 33.9999 4.90227C40.6546 4.90789 47.035 7.55392 51.7406 12.2595C56.4461 16.965 59.0922 23.3455 59.0978 30.0001V30.0072Z" fill="white" fill-opacity="0.5" shape-rendering="crispEdges"/>
<path d="M34.8071 0.571777L35.4907 0.596191C42.5568 0.927835 49.2583 3.79645 54.3716 8.6626L54.8608 9.14014C57.3857 11.66 59.4308 14.6157 60.8979 17.8628L61.1841 18.5161C64.0253 25.2426 64.2599 32.7858 61.8433 39.6763C59.5021 46.3515 54.835 51.9508 48.7085 55.4565L48.1108 55.7896C41.891 59.1591 34.6716 60.1686 27.7788 58.647L27.1128 58.4917C20.2425 56.8066 14.2186 52.702 10.1372 46.9429L9.74854 46.3804C5.79365 40.5154 4.09084 33.4279 4.93896 26.4204L5.02881 25.7427C6.04184 18.7418 9.54493 12.349 14.8823 7.72998L15.4048 7.28857C20.8601 2.78523 27.7504 0.404909 34.8071 0.571777ZM33.9995 4.40186C29.0955 4.40193 24.2981 5.81084 20.1763 8.45557L19.7788 8.71533C15.5695 11.5277 12.2887 15.5257 10.3511 20.2026C8.47407 24.7333 7.93945 29.7046 8.80518 34.5249L8.89307 34.9917C9.84936 39.8017 12.1671 44.2322 15.5649 47.7593L15.897 48.0981C19.3644 51.5665 23.7527 53.9632 28.5376 55.0083L29.0015 55.105C33.8114 56.0626 38.7919 55.6178 43.3511 53.8286L43.7905 53.6519C48.3219 51.776 52.2163 48.6391 55.0132 44.6187L55.2798 44.2271C58.0934 40.0185 59.5967 35.0698 59.5981 30.0073V29.9995C59.5924 23.2125 56.8934 16.7049 52.0942 11.9058C47.4451 7.25665 41.1928 4.5788 34.6362 4.41064L34.0005 4.40186H33.9995Z" stroke="white" shape-rendering="crispEdges"/>
</g>
<g filter="url(#filter1_d_2028_2631)">
<path d="M28.4895 16.4962C27.8528 16.4849 27.2376 16.7265 26.7788 17.168C26.32 17.6096 26.055 18.2151 26.042 18.8518V41.4172C26.0757 42.0445 26.3486 42.635 26.8046 43.0672C27.2606 43.4993 27.8649 43.7401 28.4931 43.7401C29.1213 43.7401 29.7256 43.4993 30.1815 43.0672C30.6375 42.635 30.9104 42.0445 30.9441 41.4172V18.8518C30.9293 18.2145 30.6628 17.609 30.2028 17.1676C29.7429 16.7262 29.1269 16.4848 28.4895 16.4962ZM39.5105 16.4962C38.8738 16.4849 38.2586 16.7265 37.7998 17.168C37.341 17.6096 37.076 18.2151 37.063 18.8518V41.4172C37.0967 42.0445 37.3696 42.635 37.8256 43.0672C38.2816 43.4993 38.8858 43.7401 39.514 43.7401C40.1422 43.7401 40.7465 43.4993 41.2025 43.0672C41.6585 42.635 41.9314 42.0445 41.9651 41.4172V18.8518C41.9503 18.2145 41.6837 17.609 41.2238 17.1676C40.7639 16.7262 40.1479 16.4848 39.5105 16.4962Z" fill="white" fill-opacity="0.5" shape-rendering="crispEdges"/>
<path d="M28.4805 16.9958H28.498C28.9401 16.988 29.3693 17.1342 29.7139 17.405L29.8564 17.5281C30.1755 17.8343 30.3774 18.2404 30.4307 18.6755L30.4443 18.863V41.3992C30.4191 41.8329 30.25 42.244 29.9668 42.5691L29.8379 42.7039C29.4748 43.0479 28.9934 43.24 28.4932 43.24C28.0554 43.24 27.6322 43.0932 27.29 42.8259L27.1484 42.7039C26.7876 42.3618 26.5709 41.8953 26.542 41.3992V18.8621C26.551 18.421 26.7125 17.9987 26.9961 17.6658L27.126 17.5281C27.4893 17.1785 27.9763 16.9869 28.4805 16.9958ZM39.502 16.9958H39.5195C39.9617 16.988 40.3907 17.134 40.7354 17.405L40.8779 17.5281C41.197 17.8343 41.3979 18.2404 41.4512 18.6755L41.4648 18.863V41.4001C41.4394 41.8334 41.2711 42.2443 40.9883 42.5691L40.8584 42.7039C40.4953 43.048 40.0139 43.24 39.5137 43.24C39.0759 43.2399 38.6527 43.0933 38.3105 42.8259L38.1699 42.7039C37.8522 42.4027 37.6456 42.0054 37.5811 41.5759L37.5625 41.3904V18.8621C37.5728 18.3578 37.783 17.8779 38.1465 17.5281C38.5099 17.1784 38.9977 16.9868 39.502 16.9958Z" stroke="white" shape-rendering="crispEdges"/>
</g>
<defs>
<filter id="filter0_d_2028_2631" x="0.226074" y="0.0639648" width="67.7737" height="67.7737" filterUnits="userSpaceOnUse" color-interpolation-filters="sRGB">
<feFlood flood-opacity="0" result="BackgroundImageFix"/>
<feColorMatrix in="SourceAlpha" type="matrix" values="0 0 0 0 0 0 0 0 0 0 0 0 0 0 0 0 0 0 127 0" result="hardAlpha"/>
<feOffset dy="4"/>
<feGaussianBlur stdDeviation="2"/>
<feComposite in2="hardAlpha" operator="out"/>
<feColorMatrix type="matrix" values="0 0 0 0 0 0 0 0 0 0 0 0 0 0 0 0 0 0 0.25 0"/>
<feBlend mode="normal" in2="BackgroundImageFix" result="effect1_dropShadow_2028_2631"/>
<feBlend mode="normal" in="SourceGraphic" in2="effect1_dropShadow_2028_2631" result="shape"/>
</filter>
<filter id="filter1_d_2028_2631" x="22.042" y="16.4958" width="23.9231" height="35.2444" filterUnits="userSpaceOnUse" color-interpolation-filters="sRGB">
<feFlood flood-opacity="0" result="BackgroundImageFix"/>
<feColorMatrix in="SourceAlpha" type="matrix" values="0 0 0 0 0 0 0 0 0 0 0 0 0 0 0 0 0 0 127 0" result="hardAlpha"/>
<feOffset dy="4"/>
<feGaussianBlur stdDeviation="2"/>
<feComposite in2="hardAlpha" operator="out"/>
<feColorMatrix type="matrix" values="0 0 0 0 0 0 0 0 0 0 0 0 0 0 0 0 0 0 0.25 0"/>
<feBlend mode="normal" in2="BackgroundImageFix" result="effect1_dropShadow_2028_2631"/>
<feBlend mode="normal" in="SourceGraphic" in2="effect1_dropShadow_2028_2631" result="shape"/>
</filter>
</defs>
</svg>
