<svg width="60" height="60" viewBox="0 0 60 60" fill="none" xmlns="http://www.w3.org/2000/svg">
<path d="M51.2143 8.78566C45.9551 3.54236 38.9322 0.444862 31.514 0.0967252C24.0958 -0.251411 16.8137 2.17475 11.0866 6.90247C5.35955 11.6302 1.59775 18.3208 0.534221 25.6706C-0.529304 33.0204 1.18163 40.5029 5.33366 46.6602C9.48568 52.8174 15.7814 57.2083 22.994 58.9773C30.2066 60.7462 37.8194 59.7665 44.3492 56.2291C50.8789 52.6916 55.8577 46.8498 58.3155 39.842C60.7734 32.8341 60.5341 25.1622 57.6443 18.3212C56.1368 14.7573 53.9532 11.5192 51.2143 8.78566ZM55.0978 30.0071C55.0964 34.9707 53.6232 39.8224 50.8646 43.9488C48.1059 48.0752 44.1857 51.2909 39.5996 53.1894C35.0134 55.0879 29.9673 55.5839 25.0992 54.6147C20.2312 53.6455 15.7598 51.2546 12.2506 47.7444C8.74126 44.2341 6.35163 39.7621 5.38379 34.8937C4.41596 30.0254 4.9134 24.9795 6.8132 20.3938C8.71301 15.8082 11.9299 11.8889 16.057 9.13141C20.1842 6.37393 25.0363 4.90215 29.9999 4.90215C36.6546 4.90777 43.035 7.5538 47.7406 12.2593C52.4461 16.9649 55.0922 23.3454 55.0978 30V30.0071Z" fill="#4D4D4D"/>
<path d="M24.4895 16.4961C23.8528 16.4847 23.2376 16.7263 22.7788 17.1679C22.32 17.6095 22.055 18.215 22.042 18.8517V41.4171C22.0757 42.0444 22.3486 42.6349 22.8046 43.067C23.2606 43.4992 23.8649 43.74 24.4931 43.74C25.1213 43.74 25.7256 43.4992 26.1815 43.067C26.6375 42.6349 26.9104 42.0444 26.9441 41.4171V18.8517C26.9293 18.2144 26.6628 17.6089 26.2028 17.1675C25.7429 16.7261 25.1269 16.4847 24.4895 16.4961ZM35.5105 16.4961C34.8738 16.4847 34.2586 16.7263 33.7998 17.1679C33.341 17.6095 33.076 18.215 33.063 18.8517V41.4171C33.0967 42.0444 33.3696 42.6349 33.8256 43.067C34.2816 43.4992 34.8858 43.74 35.514 43.74C36.1422 43.74 36.7465 43.4992 37.2025 43.067C37.6585 42.6349 37.9314 42.0444 37.9651 41.4171V18.8517C37.9503 18.2144 37.6837 17.6089 37.2238 17.1675C36.7639 16.7261 36.1479 16.4847 35.5105 16.4961Z" fill="#4D4D4D"/>
</svg>
